{
  "source": "C:\\Users\\Peter\\Desktop\\stuff\\MIUN\\quantitative_research\\video_compression\\videos\\UVG\\Jockey_1920x1080_120fps_420_8bit_YUV.y4m",
  "output": "C:\\Users\\Peter\\Desktop\\stuff\\MIUN\\quantitative_research\\video_compression\\compressed_videos\\UVG\\av1\\3\\Jockey_1920x1080_120fps_420_8bit_YUV_av1.mkv",
  "codec": "av1",
  "ok": "[yuv4mpegpipe @ 000001afbdcf5300] Stream #0: not enough frames to estimate rate; consider increasing probesize\nInput #0, yuv4mpegpipe, from 'C:\\Users\\Peter\\Desktop\\stuff\\MIUN\\quantitative_research\\video_compression\\videos\\UVG\\Jockey_1920x1080_120fps_420_8bit_YUV.y4m':\n  Duration: 00:00:05.00, start: 0.000000, bitrate: 2985989 kb/s\n  Stream #0:0: Video: rawvideo (I420 / 0x30323449), yuv420p(progressive), 1920x1080, 120 fps, 120 tbr, 120 tbn\n[out#0/matroska @ 000001afbdcf9100] Codec AVOption b:a (set bitrate (in bits/s)) has not been used for any stream. The most likely reason is either wrong type (e.g. a video option with no video streams) or that it is a private option of some decoder which was not actually used for any stream.\nStream mapping:\n  Stream #0:0 -> #0:0 (rawvideo (native) -> av1 (libsvtav1))\nPress [q] to stop, [?] for help\nSvt[info]: -------------------------------------------\nSvt[info]: SVT [version]:\tSVT-AV1 Encoder Lib v3.1.0-19-g6ecfe8ec\nSvt[info]: SVT [build]  :\tGCC 15.2.0\t 64 bit\nSvt[info]: LIB Build date: Aug 17 2025 11:37:13\nSvt[info]: -------------------------------------------\n[libsvtav1 @ 000001afbdcfc140] Specified chroma sample location center is unsupported on the AV1 bit stream level. Usage of a container that allows passing this information - such as Matroska - is recommended.\nSvt[info]: Level of Parallelism: 5\nSvt[info]: Number of PPCS 93\nSvt[info]: [asm level on system : up to avx2]\nSvt[info]: [asm level selected : up to avx2]\nSvt[info]: -------------------------------------------\nSvt[info]: SVT [config]: main profile\ttier (auto)\tlevel (auto)\nSvt[info]: SVT [config]: width / height / fps numerator / fps denominator \t\t: 1920 / 1080 / 120 / 1\nSvt[info]: SVT [config]: bit-depth / color format \t\t\t\t\t: 8 / YUV420\nSvt[info]: SVT [config]: preset / tune / pred struct \t\t\t\t\t: 4 / PSNR / random access\nSvt[info]: SVT [config]: gop size / mini-gop size / key-frame type \t\t\t: 641 / 16 / key frame\nSvt[info]: SVT [config]: BRC mode / target bitrate (kbps)\t\t\t\t: VBR / 3000 \nSvt[info]: SVT [config]: AQ mode / Variance Boost \t\t\t\t\t: 2 / 0\nSvt[info]: SVT [config]: sharpness / luminance-based QP bias \t\t\t\t: 0 / 0\nSvt[info]: SVT [config]: QP scale compress strength \t\t\t\t\t: 0\nSvt[info]: -------------------------------------------\nOutput #0, matroska, to 'C:\\Users\\Peter\\Desktop\\stuff\\MIUN\\quantitative_research\\video_compression\\compressed_videos\\UVG\\av1\\3\\Jockey_1920x1080_120fps_420_8bit_YUV_av1.mkv':\n  Metadata:\n    encoder         : Lavf62.3.100\n  Stream #0:0: Video: av1 (AV01 / 0x31305641), yuv420p(tv, progressive), 1920x1080, q=2-31, 3000 kb/s, 120 fps, 1k tbn\n    Metadata:\n      encoder         : Lavc62.11.100 libsvtav1\n    Side data:\n      cpb: bitrate max/min/avg: 0/0/3000000 buffer size: 3000000 vbv_delay: N/A\nframe=    0 fps=0.0 q=0.0 size=       0KiB time=N/A bitrate=N/A speed=N/A elapsed=0:00:05.15    \nframe=    0 fps=0.0 q=0.0 size=       0KiB time=N/A bitrate=N/A speed=N/A elapsed=0:00:05.76    \nframe=    0 fps=0.0 q=0.0 size=       0KiB time=N/A bitrate=N/A speed=N/A elapsed=0:00:06.32    \nframe=    0 fps=0.0 q=0.0 size=       0KiB time=N/A bitrate=N/A speed=N/A elapsed=0:00:06.87    \nframe=    0 fps=0.0 q=0.0 size=       0KiB time=N/A bitrate=N/A speed=N/A elapsed=0:00:07.42    \nframe=    0 fps=0.0 q=0.0 size=       0KiB time=N/A bitrate=N/A speed=N/A elapsed=0:00:07.97    \nframe=    0 fps=0.0 q=0.0 size=       0KiB time=N/A bitrate=N/A speed=N/A elapsed=0:00:08.54    \nframe=    0 fps=0.0 q=0.0 size=       0KiB time=N/A bitrate=N/A speed=N/A elapsed=0:00:09.10    \nframe=    0 fps=0.0 q=0.0 size=       0KiB time=N/A bitrate=N/A speed=N/A elapsed=0:00:09.69    \nframe=    0 fps=0.0 q=0.0 size=       0KiB time=N/A bitrate=N/A speed=N/A elapsed=0:00:10.25    \nframe=    0 fps=0.0 q=0.0 size=       0KiB time=N/A bitrate=N/A speed=N/A elapsed=0:00:10.83    \nframe=    0 fps=0.0 q=0.0 size=       0KiB time=N/A bitrate=N/A speed=N/A elapsed=0:00:11.43    \nframe=    0 fps=0.0 q=0.0 size=       0KiB time=N/A bitrate=N/A speed=N/A elapsed=0:00:12.01    \nframe=    0 fps=0.0 q=0.0 size=       0KiB time=N/A bitrate=N/A speed=N/A elapsed=0:00:12.56    \nframe=    0 fps=0.0 q=0.0 size=       0KiB time=N/A bitrate=N/A speed=N/A elapsed=0:00:13.12    \nframe=    0 fps=0.0 q=0.0 size=       0KiB time=N/A bitrate=N/A speed=N/A elapsed=0:00:13.68    \nframe=    0 fps=0.0 q=0.0 size=       0KiB time=N/A bitrate=N/A speed=N/A elapsed=0:00:14.26    \nframe=    0 fps=0.0 q=0.0 size=       0KiB time=N/A bitrate=N/A speed=N/A elapsed=0:00:14.85    \nframe=    0 fps=0.0 q=0.0 size=       0KiB time=N/A bitrate=N/A speed=N/A elapsed=0:00:15.40    \nframe=    0 fps=0.0 q=0.0 size=       0KiB time=N/A bitrate=N/A speed=N/A elapsed=0:00:16.02    \nframe=    0 fps=0.0 q=0.0 size=       0KiB time=N/A bitrate=N/A speed=N/A elapsed=0:00:16.60    \nframe=    0 fps=0.0 q=0.0 size=       0KiB time=N/A bitrate=N/A speed=N/A elapsed=0:00:17.17    \nframe=    0 fps=0.0 q=0.0 size=       0KiB time=N/A bitrate=N/A speed=N/A elapsed=0:00:17.75    \nframe=    0 fps=0.0 q=0.0 size=       0KiB time=N/A bitrate=N/A speed=N/A elapsed=0:00:18.32    \nframe=    0 fps=0.0 q=0.0 size=       0KiB time=N/A bitrate=N/A speed=N/A elapsed=0:00:18.89    \nframe=    0 fps=0.0 q=0.0 size=       0KiB time=N/A bitrate=N/A speed=N/A elapsed=0:00:19.44    \nframe=    0 fps=0.0 q=0.0 size=       0KiB time=N/A bitrate=N/A speed=N/A elapsed=0:00:20.00    \nframe=    0 fps=0.0 q=0.0 size=       0KiB time=N/A bitrate=N/A speed=N/A elapsed=0:00:20.57    \nframe=    0 fps=0.0 q=0.0 size=       0KiB time=N/A bitrate=N/A speed=N/A elapsed=0:00:21.19    \nframe=    0 fps=0.0 q=0.0 size=       0KiB time=N/A bitrate=N/A speed=N/A elapsed=0:00:21.77    \nframe=    0 fps=0.0 q=0.0 size=       0KiB time=N/A bitrate=N/A speed=N/A elapsed=0:00:22.32    \nframe=    0 fps=0.0 q=0.0 size=       0KiB time=N/A bitrate=N/A speed=N/A elapsed=0:00:22.88    \nframe=    0 fps=0.0 q=0.0 size=       0KiB time=N/A bitrate=N/A speed=N/A elapsed=0:00:23.45    \nframe=    0 fps=0.0 q=0.0 size=       0KiB time=N/A bitrate=N/A speed=N/A elapsed=0:00:24.02    \nframe=    0 fps=0.0 q=0.0 size=       0KiB time=N/A bitrate=N/A speed=N/A elapsed=0:00:24.60    \nframe=    1 fps=0.0 q=19.0 size=       1KiB time=00:00:00.00 bitrate=N/A speed=   0x elapsed=0:00:25.16    \nframe=    1 fps=0.0 q=19.0 size=       1KiB time=00:00:00.00 bitrate=N/A speed=   0x elapsed=0:00:25.75    \nframe=    1 fps=0.0 q=19.0 size=       1KiB time=00:00:00.00 bitrate=N/A speed=   0x elapsed=0:00:26.31    \nframe=    1 fps=0.0 q=19.0 size=       1KiB time=00:00:00.00 bitrate=N/A speed=   0x elapsed=0:00:26.90    \nframe=    1 fps=0.0 q=19.0 size=       1KiB time=00:00:00.00 bitrate=N/A speed=   0x elapsed=0:00:27.51    \nframe=    1 fps=0.0 q=19.0 size=       1KiB time=00:00:00.00 bitrate=N/A speed=   0x elapsed=0:00:28.07    \nframe=    1 fps=0.0 q=19.0 size=       1KiB time=00:00:00.00 bitrate=N/A speed=   0x elapsed=0:00:28.65    \nframe=    1 fps=0.0 q=19.0 size=       1KiB time=00:00:00.00 bitrate=N/A speed=   0x elapsed=0:00:29.24    \nframe=    1 fps=0.0 q=19.0 size=       1KiB time=00:00:00.00 bitrate=N/A speed=   0x elapsed=0:00:29.84    \nframe=    1 fps=0.0 q=19.0 size=       1KiB time=00:00:00.00 bitrate=N/A speed=   0x elapsed=0:00:30.40    \nframe=    1 fps=0.0 q=19.0 size=       1KiB time=00:00:00.00 bitrate=N/A speed=   0x elapsed=0:00:30.99    \nframe=    1 fps=0.0 q=19.0 size=       1KiB time=00:00:00.00 bitrate=N/A speed=   0x elapsed=0:00:31.57    \nframe=    1 fps=0.0 q=19.0 size=       1KiB time=00:00:00.00 bitrate=N/A speed=   0x elapsed=0:00:32.16    \nframe=    2 fps=0.1 q=49.0 size=       1KiB time=00:00:00.00 bitrate= 537.6kbits/s speed=0.000254x elapsed=0:00:32.74    \nframe=    2 fps=0.1 q=49.0 size=       1KiB time=00:00:00.00 bitrate= 537.6kbits/s speed=0.00025x elapsed=0:00:33.34    \nframe=    3 fps=0.1 q=46.0 size=       1KiB time=00:00:00.01 bitrate= 268.8kbits/s speed=0.000491x elapsed=0:00:33.93    \nframe=    3 fps=0.1 q=46.0 size=       1KiB time=00:00:00.01 bitrate= 268.8kbits/s speed=0.000482x elapsed=0:00:34.55    \nframe=    4 fps=0.1 q=49.0 size=       1KiB time=00:00:00.02 bitrate= 179.2kbits/s speed=0.000711x elapsed=0:00:35.14    \nframe=    4 fps=0.1 q=49.0 size=       1KiB time=00:00:00.02 bitrate= 179.2kbits/s speed=0.0007x elapsed=0:00:35.71    \nframe=    5 fps=0.1 q=44.0 size=       1KiB time=00:00:00.03 bitrate= 134.4kbits/s speed=0.000919x elapsed=0:00:36.27    \nframe=    7 fps=0.2 q=45.0 size=       1KiB time=00:00:00.05 bitrate=  89.6kbits/s speed=0.00136x elapsed=0:00:36.82    \nframe=    7 fps=0.2 q=45.0 size=       1KiB time=00:00:00.05 bitrate=  89.6kbits/s speed=0.00134x elapsed=0:00:37.36    \nframe=    7 fps=0.2 q=45.0 size=       1KiB time=00:00:00.05 bitrate=  89.6kbits/s speed=0.00132x elapsed=0:00:37.94    \nframe=    8 fps=0.2 q=45.0 size=       1KiB time=00:00:00.05 bitrate=  76.8kbits/s speed=0.00151x elapsed=0:00:38.50    \nframe=    8 fps=0.2 q=45.0 size=       1KiB time=00:00:00.05 bitrate=  76.8kbits/s speed=0.00149x elapsed=0:00:39.11    \nframe=    8 fps=0.2 q=45.0 size=       1KiB time=00:00:00.05 bitrate=  76.8kbits/s speed=0.00147x elapsed=0:00:39.68    \nframe=    9 fps=0.2 q=41.0 size=       1KiB time=00:00:00.06 bitrate=  67.2kbits/s speed=0.00166x elapsed=0:00:40.24    \nframe=    9 fps=0.2 q=41.0 size=       1KiB time=00:00:00.06 bitrate=  67.2kbits/s speed=0.00163x elapsed=0:00:40.79    \nframe=   10 fps=0.2 q=43.0 size=       1KiB time=00:00:00.07 bitrate=  59.7kbits/s speed=0.00181x elapsed=0:00:41.36    \nframe=   11 fps=0.3 q=44.0 size=       1KiB time=00:00:00.08 bitrate=  53.8kbits/s speed=0.00199x elapsed=0:00:41.94    \nframe=   11 fps=0.3 q=44.0 size=       1KiB time=00:00:00.08 bitrate=  53.8kbits/s speed=0.00196x elapsed=0:00:42.55    \nframe=   11 fps=0.3 q=44.0 size=       1KiB time=00:00:00.08 bitrate=  53.8kbits/s speed=0.00193x elapsed=0:00:43.14    \nframe=   12 fps=0.3 q=43.0 size=       1KiB time=00:00:00.09 bitrate=  48.9kbits/s speed=0.0021x elapsed=0:00:43.72    \nframe=   13 fps=0.3 q=41.0 size=       1KiB time=00:00:00.10 bitrate=  44.8kbits/s speed=0.00226x elapsed=0:00:44.32    \nframe=   13 fps=0.3 q=41.0 size=       1KiB time=00:00:00.10 bitrate=  44.8kbits/s speed=0.00223x elapsed=0:00:44.91    \nframe=   15 fps=0.3 q=44.0 size=       1KiB time=00:00:00.11 bitrate=  38.4kbits/s speed=0.00256x elapsed=0:00:45.50    \nframe=   15 fps=0.3 q=44.0 size=       1KiB time=00:00:00.11 bitrate=  38.4kbits/s speed=0.00253x elapsed=0:00:46.08    \nframe=   16 fps=0.3 q=42.0 size=       1KiB time=00:00:00.12 bitrate=  35.8kbits/s speed=0.00268x elapsed=0:00:46.66    \nframe=   17 fps=0.4 q=30.0 size=       1KiB time=00:00:00.12 bitrate=  35.8kbits/s speed=0.00264x elapsed=0:00:47.26    \nframe=   17 fps=0.4 q=30.0 size=       1KiB time=00:00:00.13 bitrate=  33.6kbits/s speed=0.00279x elapsed=0:00:47.84    \nframe=   19 fps=0.4 q=45.0 size=       1KiB time=00:00:00.15 bitrate=  29.9kbits/s speed=0.0031x elapsed=0:00:48.40    \nframe=   19 fps=0.4 q=45.0 size=       1KiB time=00:00:00.15 bitrate=  29.9kbits/s speed=0.00306x elapsed=0:00:48.96    \nframe=   19 fps=0.4 q=45.0 size=       1KiB time=00:00:00.15 bitrate=  29.9kbits/s speed=0.00303x elapsed=0:00:49.52    \nframe=   20 fps=0.4 q=42.0 size=       1KiB time=00:00:00.15 bitrate=  28.3kbits/s speed=0.00316x elapsed=0:00:50.06    \nframe=   20 fps=0.4 q=42.0 size=       1KiB time=00:00:00.15 bitrate=  28.3kbits/s speed=0.00313x elapsed=0:00:50.63    \nframe=   21 fps=0.4 q=43.0 size=       1KiB time=00:00:00.16 bitrate=  26.9kbits/s speed=0.00325x elapsed=0:00:51.22    \nframe=   22 fps=0.4 q=39.0 size=       1KiB time=00:00:00.16 bitrate=  26.9kbits/s speed=0.00322x elapsed=0:00:51.78    \nframe=   22 fps=0.4 q=39.0 size=       1KiB time=00:00:00.17 bitrate=  25.6kbits/s speed=0.00334x elapsed=0:00:52.35    \nframe=   22 fps=0.4 q=39.0 size=       1KiB time=00:00:00.17 bitrate=  25.6kbits/s speed=0.00331x elapsed=0:00:52.92    \nframe=   22 fps=0.4 q=39.0 size=       1KiB time=00:00:00.17 bitrate=  25.6kbits/s speed=0.00327x elapsed=0:00:53.51    \nframe=   23 fps=0.4 q=42.0 size=       1KiB time=00:00:00.18 bitrate=  24.4kbits/s speed=0.00339x elapsed=0:00:54.09    \nframe=   23 fps=0.4 q=42.0 size=       1KiB time=00:00:00.18 bitrate=  24.4kbits/s speed=0.00335x elapsed=0:00:54.69    \nframe=   23 fps=0.4 q=42.0 size=       1KiB time=00:00:00.18 bitrate=  24.4kbits/s speed=0.00331x elapsed=0:00:55.31    \nframe=   24 fps=0.4 q=39.0 size=       1KiB time=00:00:00.19 bitrate=  23.4kbits/s speed=0.00343x elapsed=0:00:55.94    \nframe=   24 fps=0.4 q=39.0 size=       1KiB time=00:00:00.19 bitrate=  23.4kbits/s speed=0.00339x elapsed=0:00:56.55    \nframe=   25 fps=0.4 q=40.0 size=       1KiB time=00:00:00.20 bitrate=  22.4kbits/s speed=0.0035x elapsed=0:00:57.16    \nframe=   26 fps=0.5 q=39.0 size=       1KiB time=00:00:00.20 bitrate=  21.5kbits/s speed=0.00361x elapsed=0:00:57.74    \nframe=   26 fps=0.4 q=39.0 size=       1KiB time=00:00:00.20 bitrate=  21.5kbits/s speed=0.00357x elapsed=0:00:58.34    \nframe=   27 fps=0.5 q=44.0 size=       1KiB time=00:00:00.21 bitrate=  20.7kbits/s speed=0.00368x elapsed=0:00:58.91    \nframe=   28 fps=0.5 q=40.0 size=       1KiB time=00:00:00.21 bitrate=  20.7kbits/s speed=0.00364x elapsed=0:00:59.47    \nframe=   28 fps=0.5 q=40.0 size=       1KiB time=00:00:00.22 bitrate=  19.9kbits/s speed=0.00375x elapsed=0:01:00.05    \nframe=   29 fps=0.5 q=41.0 size=       1KiB time=00:00:00.23 bitrate=  19.2kbits/s speed=0.00385x elapsed=0:01:00.63    \nframe=   30 fps=0.5 q=40.0 size=       1KiB time=00:00:00.24 bitrate=  18.5kbits/s speed=0.00395x elapsed=0:01:01.20    \nframe=   31 fps=0.5 q=44.0 size=       1KiB time=00:00:00.25 bitrate=  17.9kbits/s speed=0.00405x elapsed=0:01:01.79    \nframe=   32 fps=0.5 q=40.0 size=       1KiB time=00:00:00.25 bitrate=  17.3kbits/s speed=0.00414x elapsed=0:01:02.36    \nframe=   33 fps=0.5 q=25.0 size=       1KiB time=00:00:00.26 bitrate=  16.8kbits/s speed=0.00424x elapsed=0:01:02.91    \nframe=   34 fps=0.5 q=39.0 size=       1KiB time=00:00:00.27 bitrate=  16.3kbits/s speed=0.00433x elapsed=0:01:03.46    \nframe=   35 fps=0.5 q=44.0 size=       1KiB time=00:00:00.28 bitrate=  15.8kbits/s speed=0.00443x elapsed=0:01:04.01    \nframe=   36 fps=0.6 q=38.0 size=       1KiB time=00:00:00.29 bitrate=  15.4kbits/s speed=0.00452x elapsed=0:01:04.56    \nframe=   36 fps=0.6 q=38.0 size=       1KiB time=00:00:00.29 bitrate=  15.4kbits/s speed=0.00448x elapsed=0:01:05.10    \nframe=   37 fps=0.6 q=43.0 size=       1KiB time=00:00:00.30 bitrate=  14.9kbits/s speed=0.00457x elapsed=0:01:05.66    \nframe=   37 fps=0.6 q=43.0 size=       1KiB time=00:00:00.30 bitrate=  14.9kbits/s speed=0.00453x elapsed=0:01:06.22    \nframe=   38 fps=0.6 q=39.0 size=       1KiB time=00:00:00.30 bitrate=  14.5kbits/s speed=0.00462x elapsed=0:01:06.77    \nframe=   38 fps=0.6 q=39.0 size=       1KiB time=00:00:00.30 bitrate=  14.5kbits/s speed=0.00458x elapsed=0:01:07.31    \nframe=   38 fps=0.6 q=39.0 size=       1KiB time=00:00:00.30 bitrate=  14.5kbits/s speed=0.00454x elapsed=0:01:07.86    \nframe=   39 fps=0.6 q=44.0 size=       1KiB time=00:00:00.31 bitrate=  14.1kbits/s speed=0.00463x elapsed=0:01:08.44    \nframe=   39 fps=0.6 q=44.0 size=       1KiB time=00:00:00.31 bitrate=  14.1kbits/s speed=0.00459x elapsed=0:01:09.05    \nframe=   39 fps=0.6 q=44.0 size=       1KiB time=00:00:00.31 bitrate=  14.1kbits/s speed=0.00455x elapsed=0:01:09.65    \nframe=   40 fps=0.6 q=39.0 size=       1KiB time=00:00:00.32 bitrate=  13.8kbits/s speed=0.00463x elapsed=0:01:10.24    \nframe=   40 fps=0.6 q=39.0 size=       1KiB time=00:00:00.32 bitrate=  13.8kbits/s speed=0.00459x elapsed=0:01:10.86    \nframe=   41 fps=0.6 q=35.0 size=       1KiB time=00:00:00.33 bitrate=  13.4kbits/s speed=0.00467x elapsed=0:01:11.44    \nframe=   41 fps=0.6 q=35.0 size=       1KiB time=00:00:00.33 bitrate=  13.4kbits/s speed=0.00463x elapsed=0:01:12.02    \nframe=   43 fps=0.6 q=44.0 size=       1KiB time=00:00:00.34 bitrate=  13.1kbits/s speed=0.00471x elapsed=0:01:12.58    \nframe=   43 fps=0.6 q=44.0 size=       1KiB time=00:00:00.35 bitrate=  12.8kbits/s speed=0.00478x elapsed=0:01:13.16    \nframe=   43 fps=0.6 q=44.0 size=       1KiB time=00:00:00.35 bitrate=  12.8kbits/s speed=0.00475x elapsed=0:01:13.73    \nframe=   44 fps=0.6 q=39.0 size=       1KiB time=00:00:00.35 bitrate=  12.5kbits/s speed=0.00482x elapsed=0:01:14.31    \nframe=   44 fps=0.6 q=39.0 size=       1KiB time=00:00:00.35 bitrate=  12.5kbits/s speed=0.00478x elapsed=0:01:14.90    \nframe=   45 fps=0.6 q=41.0 size=       1KiB time=00:00:00.36 bitrate=  12.2kbits/s speed=0.00486x elapsed=0:01:15.49    \nframe=   45 fps=0.6 q=41.0 size=       1KiB time=00:00:00.36 bitrate=  12.2kbits/s speed=0.00482x elapsed=0:01:16.08    \nframe=   46 fps=0.6 q=39.0 size=       1KiB time=00:00:00.37 bitrate=  11.9kbits/s speed=0.00489x elapsed=0:01:16.69    \nframe=   47 fps=0.6 q=44.0 size=       1KiB time=00:00:00.38 bitrate=  11.7kbits/s speed=0.00496x elapsed=0:01:17.28    \nframe=   48 fps=0.6 q=40.0 size=       1KiB time=00:00:00.39 bitrate=  11.4kbits/s speed=0.00503x elapsed=0:01:17.87    \nframe=   48 fps=0.6 q=40.0 size=       1KiB time=00:00:00.39 bitrate=  11.4kbits/s speed=0.00499x elapsed=0:01:18.48    \nframe=   48 fps=0.6 q=40.0 size=       1KiB time=00:00:00.39 bitrate=  11.4kbits/s speed=0.00495x elapsed=0:01:19.08    \nframe=   49 fps=0.6 q=22.0 size=       1KiB time=00:00:00.40 bitrate=  11.2kbits/s speed=0.00502x elapsed=0:01:19.68    \nframe=   50 fps=0.6 q=40.0 size=       1KiB time=00:00:00.40 bitrate=  11.0kbits/s speed=0.00509x elapsed=0:01:20.26    \nframe=   50 fps=0.6 q=40.0 size=       1KiB time=00:00:00.40 bitrate=  11.0kbits/s speed=0.00505x elapsed=0:01:20.83    \nframe=   52 fps=0.6 q=40.0 size=       1KiB time=00:00:00.41 bitrate=  10.8kbits/s speed=0.00512x elapsed=0:01:21.40    \nframe=   52 fps=0.6 q=40.0 size=       1KiB time=00:00:00.42 bitrate=  10.5kbits/s speed=0.00518x elapsed=0:01:21.97    \nframe=   52 fps=0.6 q=40.0 size=       1KiB time=00:00:00.42 bitrate=  10.5kbits/s speed=0.00515x elapsed=0:01:22.51    \nframe=   53 fps=0.6 q=43.0 size=       1KiB time=00:00:00.43 bitrate=  10.3kbits/s speed=0.00522x elapsed=0:01:23.06    \nframe=   54 fps=0.6 q=40.0 size=       1KiB time=00:00:00.44 bitrate=  10.1kbits/s speed=0.00528x elapsed=0:01:23.62    \nframe=   54 fps=0.6 q=40.0 size=       1KiB time=00:00:00.44 bitrate=  10.1kbits/s speed=0.00525x elapsed=0:01:24.18    \nframe=   54 fps=0.6 q=40.0 size=       1KiB time=00:00:00.44 bitrate=  10.1kbits/s speed=0.00521x elapsed=0:01:24.75    \nframe=   55 fps=0.6 q=43.0 size=       1KiB time=00:00:00.45 bitrate=  10.0kbits/s speed=0.00527x elapsed=0:01:25.32    \nframe=   55 fps=0.6 q=43.0 size=       1KiB time=00:00:00.45 bitrate=  10.0kbits/s speed=0.00524x elapsed=0:01:25.90    \nframe=   56 fps=0.6 q=40.0 size=       1KiB time=00:00:00.45 bitrate=  10.0kbits/s speed=0.0052x elapsed=0:01:26.50    \nframe=   56 fps=0.6 q=40.0 size=       1KiB time=00:00:00.45 bitrate=   9.8kbits/s speed=0.00526x elapsed=0:01:27.10    \nframe=   57 fps=0.7 q=32.0 size=       1KiB time=00:00:00.46 bitrate=   9.6kbits/s speed=0.00532x elapsed=0:01:27.68    \nframe=   57 fps=0.6 q=32.0 size=       1KiB time=00:00:00.46 bitrate=   9.6kbits/s speed=0.00529x elapsed=0:01:28.25    \nframe=   59 fps=0.7 q=44.0 size=       1KiB time=00:00:00.48 bitrate=   9.3kbits/s speed=0.00544x elapsed=0:01:28.84    \nframe=   59 fps=0.7 q=44.0 size=       1KiB time=00:00:00.48 bitrate=   9.3kbits/s speed=0.00541x elapsed=0:01:29.42    \nframe=   59 fps=0.7 q=44.0 size=       1KiB time=00:00:00.48 bitrate=   9.3kbits/s speed=0.00537x elapsed=0:01:30.00    \nframe=   60 fps=0.7 q=40.0 size=       1KiB time=00:00:00.49 bitrate=   9.1kbits/s speed=0.00543x elapsed=0:01:30.58    \nframe=   61 fps=0.7 q=41.0 size=       1KiB time=00:00:00.50 bitrate=   9.0kbits/s speed=0.00548x elapsed=0:01:31.17    \nframe=   62 fps=0.7 q=40.0 size=       1KiB time=00:00:00.50 bitrate=   8.8kbits/s speed=0.00554x elapsed=0:01:31.74    \nframe=   64 fps=0.7 q=40.0 size=       1KiB time=00:00:00.52 bitrate=   8.5kbits/s speed=0.00569x elapsed=0:01:32.32    \nframe=   64 fps=0.7 q=40.0 size=       1KiB time=00:00:00.52 bitrate=   8.5kbits/s speed=0.00565x elapsed=0:01:32.90    \nframe=   65 fps=0.7 q=20.0 size=       1KiB time=00:00:00.53 bitrate=   8.4kbits/s speed=0.00571x elapsed=0:01:33.45    \nframe=   66 fps=0.7 q=41.0 size=       1KiB time=00:00:00.54 bitrate=   8.3kbits/s speed=0.00576x elapsed=0:01:34.01    \nframe=   66 fps=0.7 q=41.0 size=       1KiB time=00:00:00.54 bitrate=   8.3kbits/s speed=0.00573x elapsed=0:01:34.58    \nframe=   68 fps=0.7 q=41.0 size=       1KiB time=00:00:00.55 bitrate=   8.0kbits/s speed=0.00587x elapsed=0:01:35.16    \nframe=   69 fps=0.7 q=43.0 size=       1KiB time=00:00:00.56 bitrate=   7.9kbits/s speed=0.00592x elapsed=0:01:35.75    \nframe=   69 fps=0.7 q=43.0 size=       1KiB time=00:00:00.56 bitrate=   7.9kbits/s speed=0.00588x elapsed=0:01:36.32    \nframe=   70 fps=0.7 q=40.0 size=       1KiB time=00:00:00.57 bitrate=   7.8kbits/s speed=0.00593x elapsed=0:01:36.91    \nframe=   70 fps=0.7 q=40.0 size=       1KiB time=00:00:00.57 bitrate=   7.8kbits/s speed=0.0059x elapsed=0:01:37.50    \nframe=   71 fps=0.7 q=44.0 size=       1KiB time=00:00:00.57 bitrate=   7.8kbits/s speed=0.00586x elapsed=0:01:38.09    \nframe=   71 fps=0.7 q=44.0 size=       1KiB time=00:00:00.58 bitrate=   7.7kbits/s speed=0.00591x elapsed=0:01:38.71    \nframe=   71 fps=0.7 q=44.0 size=       1KiB time=00:00:00.58 bitrate=   7.7kbits/s speed=0.00587x elapsed=0:01:39.34    \nframe=   72 fps=0.7 q=40.0 size=       1KiB time=00:00:00.58 bitrate=   7.7kbits/s speed=0.00584x elapsed=0:01:39.93    \nframe=   72 fps=0.7 q=40.0 size=       1KiB time=00:00:00.59 bitrate=   7.6kbits/s speed=0.00589x elapsed=0:01:40.53    \nframe=   72 fps=0.7 q=40.0 size=       1KiB time=00:00:00.59 bitrate=   7.6kbits/s speed=0.00585x elapsed=0:01:41.11    \nframe=   73 fps=0.7 q=31.0 size=       1KiB time=00:00:00.60 bitrate=   7.5kbits/s speed=0.0059x elapsed=0:01:41.69    \nframe=   74 fps=0.7 q=40.0 size=       1KiB time=00:00:00.60 bitrate=   7.4kbits/s speed=0.00595x elapsed=0:01:42.24    \nframe=   75 fps=0.7 q=44.0 size=       1KiB time=00:00:00.61 bitrate=   7.3kbits/s speed=0.006x elapsed=0:01:42.80    \nframe=   76 fps=0.7 q=39.0 size=       1KiB time=00:00:00.62 bitrate=   7.2kbits/s speed=0.00605x elapsed=0:01:43.36    \nframe=   76 fps=0.7 q=39.0 size=       1KiB time=00:00:00.62 bitrate=   7.2kbits/s speed=0.00601x elapsed=0:01:43.93    \nframe=   78 fps=0.7 q=39.0 size=       1KiB time=00:00:00.64 bitrate=   7.0kbits/s speed=0.00614x elapsed=0:01:44.48    \nframe=   79 fps=0.8 q=44.0 size=       1KiB time=00:00:00.65 bitrate=   6.9kbits/s speed=0.00619x elapsed=0:01:45.04    \nframe=   80 fps=0.8 q=39.0 size=       1KiB time=00:00:00.65 bitrate=   6.8kbits/s speed=0.00623x elapsed=0:01:45.62    \nframe=   80 fps=0.8 q=39.0 size=       1KiB time=00:00:00.65 bitrate=   6.8kbits/s speed=0.0062x elapsed=0:01:46.16    \nframe=   81 fps=0.8 q=18.0 size=       1KiB time=00:00:00.66 bitrate=   6.7kbits/s speed=0.00625x elapsed=0:01:46.72    \nframe=   81 fps=0.8 q=18.0 size=       1KiB time=00:00:00.66 bitrate=   6.7kbits/s speed=0.00621x elapsed=0:01:47.29    \nframe=   83 fps=0.8 q=43.0 size=       1KiB time=00:00:00.68 bitrate=   6.6kbits/s speed=0.00634x elapsed=0:01:47.84    \nframe=   83 fps=0.8 q=43.0 size=       1KiB time=00:00:00.68 bitrate=   6.6kbits/s speed=0.0063x elapsed=0:01:48.39    \nframe=   84 fps=0.8 q=38.0 size=       1KiB time=00:00:00.69 bitrate=   6.5kbits/s speed=0.00635x elapsed=0:01:48.96    \nframe=   84 fps=0.8 q=38.0 size=       1KiB time=00:00:00.69 bitrate=   6.5kbits/s speed=0.00631x elapsed=0:01:49.53    \nframe=   85 fps=0.8 q=43.0 size=       1KiB time=00:00:00.70 bitrate=   6.4kbits/s speed=0.00636x elapsed=0:01:50.10    \nframe=   85 fps=0.8 q=43.0 size=       1KiB time=00:00:00.70 bitrate=   6.4kbits/s speed=0.00632x elapsed=0:01:50.67    \nframe=   86 fps=0.8 q=39.0 size=       1KiB time=00:00:00.70 bitrate=   6.3kbits/s speed=0.00637x elapsed=0:01:51.22    \nframe=   86 fps=0.8 q=39.0 size=       1KiB time=00:00:00.70 bitrate=   6.3kbits/s speed=0.00634x elapsed=0:01:51.78    \nframe=   86 fps=0.8 q=39.0 size=       1KiB time=00:00:00.70 bitrate=   6.3kbits/s speed=0.0063x elapsed=0:01:52.35    \nframe=   87 fps=0.8 q=43.0 size=       1KiB time=00:00:00.71 bitrate=   6.3kbits/s speed=0.00635x elapsed=0:01:52.93    \nframe=   87 fps=0.8 q=43.0 size=       1KiB time=00:00:00.71 bitrate=   6.3kbits/s speed=0.00631x elapsed=0:01:53.53    \nframe=   87 fps=0.8 q=43.0 size=       1KiB time=00:00:00.71 bitrate=   6.3kbits/s speed=0.00628x elapsed=0:01:54.13    \nframe=   87 fps=0.8 q=43.0 size=       1KiB time=00:00:00.71 bitrate=   6.3kbits/s speed=0.00625x elapsed=0:01:54.73    \nframe=   88 fps=0.8 q=40.0 size=       1KiB time=00:00:00.72 bitrate=   6.2kbits/s speed=0.00629x elapsed=0:01:55.33    \nframe=   89 fps=0.8 q=31.0 size=       1KiB time=00:00:00.72 bitrate=   6.2kbits/s speed=0.00625x elapsed=0:01:55.94    \nframe=   89 fps=0.8 q=31.0 size=       1KiB time=00:00:00.73 bitrate=   6.1kbits/s speed=0.00629x elapsed=0:01:56.51    \nframe=   90 fps=0.8 q=40.0 size=       1KiB time=00:00:00.73 bitrate=   6.1kbits/s speed=0.00626x elapsed=0:01:57.11    \nframe=   91 fps=0.8 q=44.0 size=       1KiB time=00:00:00.75 bitrate=   6.0kbits/s speed=0.00637x elapsed=0:01:57.68    \nframe=   91 fps=0.8 q=44.0 size=       1KiB time=00:00:00.75 bitrate=   6.0kbits/s speed=0.00634x elapsed=0:01:58.26    \nframe=   92 fps=0.8 q=40.0 size=       1KiB time=00:00:00.75 bitrate=   5.9kbits/s speed=0.00638x elapsed=0:01:58.84    \nframe=   92 fps=0.8 q=40.0 size=       1KiB time=00:00:00.75 bitrate=   5.9kbits/s speed=0.00635x elapsed=0:01:59.43    \nframe=   93 fps=0.8 q=41.0 size=       1KiB time=00:00:00.75 bitrate=   5.9kbits/s speed=0.00632x elapsed=0:02:00.04    \nframe=   94 fps=0.8 q=41.0 size=       1KiB time=00:00:00.77 bitrate=   5.8kbits/s speed=0.00642x elapsed=0:02:00.65    \nframe=   95 fps=0.8 q=44.0 size=       1KiB time=00:00:00.78 bitrate=   5.7kbits/s speed=0.00646x elapsed=0:02:01.26    \nframe=   95 fps=0.8 q=44.0 size=       1KiB time=00:00:00.78 bitrate=   5.7kbits/s speed=0.00643x elapsed=0:02:01.86    \nframe=   96 fps=0.8 q=41.0 size=       1KiB time=00:00:00.79 bitrate=   5.7kbits/s speed=0.00647x elapsed=0:02:02.41    \nframe=   97 fps=0.8 q=18.0 size=       1KiB time=00:00:00.80 bitrate=   5.6kbits/s speed=0.00651x elapsed=0:02:02.96    \nframe=   97 fps=0.8 q=18.0 size=       1KiB time=00:00:00.80 bitrate=   5.6kbits/s speed=0.00648x elapsed=0:02:03.49    \nframe=   98 fps=0.8 q=40.0 size=       1KiB time=00:00:00.80 bitrate=   5.5kbits/s speed=0.00652x elapsed=0:02:04.07    \nframe=   98 fps=0.8 q=40.0 size=       1KiB time=00:00:00.80 bitrate=   5.5kbits/s speed=0.00648x elapsed=0:02:04.68    \nframe=   99 fps=0.8 q=44.0 size=       1KiB time=00:00:00.81 bitrate=   5.5kbits/s speed=0.00652x elapsed=0:02:05.24    \nframe=  100 fps=0.8 q=40.0 size=       1KiB time=00:00:00.82 bitrate=   5.4kbits/s speed=0.00656x elapsed=0:02:05.80    \nframe=  101 fps=0.8 q=43.0 size=       1KiB time=00:00:00.83 bitrate=   5.4kbits/s speed=0.00659x elapsed=0:02:06.36    \nframe=  101 fps=0.8 q=43.0 size=       1KiB time=00:00:00.83 bitrate=   5.4kbits/s speed=0.00657x elapsed=0:02:06.92    \nframe=  101 fps=0.8 q=43.0 size=       1KiB time=00:00:00.83 bitrate=   5.4kbits/s speed=0.00654x elapsed=0:02:07.48    \nframe=  102 fps=0.8 q=41.0 size=       1KiB time=00:00:00.84 bitrate=   5.3kbits/s speed=0.00657x elapsed=0:02:08.07    \nframe=  102 fps=0.8 q=41.0 size=       1KiB time=00:00:00.84 bitrate=   5.3kbits/s speed=0.00654x elapsed=0:02:08.65    \nframe=  103 fps=0.8 q=44.0 size=       1KiB time=00:00:00.84 bitrate=   5.3kbits/s speed=0.00651x elapsed=0:02:09.24    \nframe=  103 fps=0.8 q=44.0 size=       1KiB time=00:00:00.85 bitrate=   5.3kbits/s speed=0.00655x elapsed=0:02:09.83    \nframe=  103 fps=0.8 q=44.0 size=       1KiB time=00:00:00.85 bitrate=   5.3kbits/s speed=0.00652x elapsed=0:02:10.42    \nframe=  104 fps=0.8 q=41.0 size=       1KiB time=00:00:00.85 bitrate=   5.2kbits/s speed=0.00655x elapsed=0:02:11.01    \nframe=  104 fps=0.8 q=41.0 size=       1KiB time=00:00:00.85 bitrate=   5.2kbits/s speed=0.00652x elapsed=0:02:11.55    \nframe=  105 fps=0.8 q=30.0 size=       1KiB time=00:00:00.86 bitrate=   5.2kbits/s speed=0.00656x elapsed=0:02:12.12    \nframe=  106 fps=0.8 q=41.0 size=       1KiB time=00:00:00.87 bitrate=   5.1kbits/s speed=0.00659x elapsed=0:02:12.68    \nframe=  107 fps=0.8 q=45.0 size=       1KiB time=00:00:00.88 bitrate=   5.1kbits/s speed=0.00663x elapsed=0:02:13.25    \nframe=  107 fps=0.8 q=45.0 size=       1KiB time=00:00:00.88 bitrate=   5.1kbits/s speed=0.0066x elapsed=0:02:13.83    \nframe=  108 fps=0.8 q=41.0 size=       1KiB time=00:00:00.89 bitrate=   5.0kbits/s speed=0.00663x elapsed=0:02:14.42    \nframe=  109 fps=0.8 q=42.0 size=       1KiB time=00:00:00.90 bitrate=   5.0kbits/s speed=0.00667x elapsed=0:02:15.01    \nframe=  110 fps=0.8 q=42.0 size=       1KiB time=00:00:00.90 bitrate=   4.9kbits/s speed=0.0067x elapsed=0:02:15.58    \nframe=  111 fps=0.8 q=45.0 size=       1KiB time=00:00:00.91 bitrate=   4.9kbits/s speed=0.00673x elapsed=0:02:16.17    \nframe=  112 fps=0.8 q=42.0 size=       1KiB time=00:00:00.92 bitrate=   4.8kbits/s speed=0.00676x elapsed=0:02:16.74    \nframe=  113 fps=0.8 q=18.0 size=       1KiB time=00:00:00.93 bitrate=   4.8kbits/s speed=0.0068x elapsed=0:02:17.35    \nframe=  113 fps=0.8 q=18.0 size=       1KiB time=00:00:00.93 bitrate=   4.8kbits/s speed=0.00677x elapsed=0:02:17.95    \nframe=  115 fps=0.8 q=45.0 size=       1KiB time=00:00:00.94 bitrate=   4.8kbits/s speed=0.0068x elapsed=0:02:18.53    \nframe=  115 fps=0.8 q=45.0 size=       1KiB time=00:00:00.95 bitrate=   4.7kbits/s speed=0.00683x elapsed=0:02:19.11    \nframe=  116 fps=0.8 q=42.0 size=       1KiB time=00:00:00.95 bitrate=   4.7kbits/s speed=0.00686x elapsed=0:02:19.68    \nframe=  116 fps=0.8 q=42.0 size=       1KiB time=00:00:00.95 bitrate=   4.7kbits/s speed=0.00683x elapsed=0:02:20.25    \nframe=  117 fps=0.8 q=44.0 size=       1KiB time=00:00:00.96 bitrate=   4.6kbits/s speed=0.00686x elapsed=0:02:20.81    \nframe=  118 fps=0.8 q=43.0 size=       1KiB time=00:00:00.97 bitrate=   4.6kbits/s speed=0.0069x elapsed=0:02:21.37    \nframe=  118 fps=0.8 q=43.0 size=       1KiB time=00:00:00.97 bitrate=   4.6kbits/s speed=0.00687x elapsed=0:02:21.94    \nframe=  118 fps=0.8 q=43.0 size=       1KiB time=00:00:00.97 bitrate=   4.6kbits/s speed=0.00684x elapsed=0:02:22.49    \nframe=  119 fps=0.8 q=46.0 size=       1KiB time=00:00:00.98 bitrate=   4.6kbits/s speed=0.00687x elapsed=0:02:23.07    \nframe=  119 fps=0.8 q=46.0 size=       1KiB time=00:00:00.98 bitrate=   4.6kbits/s speed=0.00685x elapsed=0:02:23.65    \nframe=  120 fps=0.8 q=43.0 size=       1KiB time=00:00:00.99 bitrate=   4.5kbits/s speed=0.00688x elapsed=0:02:24.23    \nframe=  120 fps=0.8 q=43.0 size=       1KiB time=00:00:00.99 bitrate=   4.5kbits/s speed=0.00685x elapsed=0:02:24.81    \nframe=  120 fps=0.8 q=43.0 size=       1KiB time=00:00:00.99 bitrate=   4.5kbits/s speed=0.00682x elapsed=0:02:25.39    \nframe=  122 fps=0.8 q=43.0 size=       1KiB time=00:00:01.00 bitrate=   4.5kbits/s speed=0.00685x elapsed=0:02:25.95    \nframe=  122 fps=0.8 q=43.0 size=       1KiB time=00:00:01.00 bitrate=   4.4kbits/s speed=0.00688x elapsed=0:02:26.53    \nframe=  123 fps=0.8 q=46.0 size=       1KiB time=00:00:01.01 bitrate=   4.4kbits/s speed=0.00691x elapsed=0:02:27.11    \nframe=  124 fps=0.8 q=43.0 size=       1KiB time=00:00:01.02 bitrate=   4.4kbits/s speed=0.00694x elapsed=0:02:27.68    \nframe=  124 fps=0.8 q=43.0 size=       1KiB time=00:00:01.02 bitrate=   4.4kbits/s speed=0.00691x elapsed=0:02:28.27    \nframe=  127 fps=0.9 q=45.0 size=       1KiB time=00:00:01.04 bitrate=   4.3kbits/s speed=0.007x elapsed=0:02:28.86    \nframe=  127 fps=0.8 q=45.0 size=       1KiB time=00:00:01.05 bitrate=   4.3kbits/s speed=0.00703x elapsed=0:02:29.42    \nframe=  127 fps=0.8 q=45.0 size=       1KiB time=00:00:01.05 bitrate=   4.3kbits/s speed=0.007x elapsed=0:02:29.98    \nframe=  128 fps=0.9 q=44.0 size=       1KiB time=00:00:01.05 bitrate=   4.2kbits/s speed=0.00703x elapsed=0:02:30.54    \nframe=  129 fps=0.9 q=18.0 size=       1KiB time=00:00:01.06 bitrate=   4.2kbits/s speed=0.00706x elapsed=0:02:31.11    \nframe=  130 fps=0.9 q=44.0 size=       1KiB time=00:00:01.07 bitrate=   4.2kbits/s speed=0.00709x elapsed=0:02:31.67    \nframe=  131 fps=0.9 q=45.0 size=       1KiB time=00:00:01.08 bitrate=   4.1kbits/s speed=0.00712x elapsed=0:02:32.24    \nframe=  131 fps=0.9 q=45.0 size=       1KiB time=00:00:01.08 bitrate=   4.1kbits/s speed=0.00709x elapsed=0:02:32.82    \nframe=  132 fps=0.9 q=44.0 size=       1KiB time=00:00:01.09 bitrate=   4.1kbits/s speed=0.00712x elapsed=0:02:33.39    \nframe=  133 fps=0.9 q=44.0 size=       1KiB time=00:00:01.10 bitrate=   4.1kbits/s speed=0.00714x elapsed=0:02:33.97    \nframe=  133 fps=0.9 q=44.0 size=       1KiB time=00:00:01.10 bitrate=   4.1kbits/s speed=0.00712x elapsed=0:02:34.52    \nframe=  134 fps=0.9 q=45.0 size=       1KiB time=00:00:01.10 bitrate=   4.0kbits/s speed=0.00715x elapsed=0:02:35.07    \nframe=  134 fps=0.9 q=45.0 size=       1KiB time=00:00:01.10 bitrate=   4.0kbits/s speed=0.00712x elapsed=0:02:35.62    \nframe=  135 fps=0.9 q=45.0 size=       1KiB time=00:00:01.11 bitrate=   4.0kbits/s speed=0.00715x elapsed=0:02:36.17    \nframe=  135 fps=0.9 q=45.0 size=       1KiB time=00:00:01.11 bitrate=   4.0kbits/s speed=0.00712x elapsed=0:02:36.75    \nframe=  136 fps=0.9 q=45.0 size=       1KiB time=00:00:01.12 bitrate=   4.0kbits/s speed=0.00715x elapsed=0:02:37.31    \nframe=  137 fps=0.9 q=31.0 size=       1KiB time=00:00:01.13 bitrate=   4.0kbits/s speed=0.00718x elapsed=0:02:37.84    \nframe=  139 fps=0.9 q=45.0 size=       1KiB time=00:00:01.15 bitrate=   3.9kbits/s speed=0.00726x elapsed=0:02:38.39    \nframe=  139 fps=0.9 q=45.0 size=       1KiB time=00:00:01.15 bitrate=   3.9kbits/s speed=0.00724x elapsed=0:02:38.94    \nframe=  140 fps=0.9 q=46.0 size=       1KiB time=00:00:01.15 bitrate=   3.9kbits/s speed=0.00726x elapsed=0:02:39.49    \nframe=  142 fps=0.9 q=46.0 size=       1KiB time=00:00:01.16 bitrate=   3.8kbits/s speed=0.00729x elapsed=0:02:40.06    \nframe=  143 fps=0.9 q=45.0 size=       1KiB time=00:00:01.18 bitrate=   3.8kbits/s speed=0.00737x elapsed=0:02:40.62    \nframe=  143 fps=0.9 q=45.0 size=       1KiB time=00:00:01.18 bitrate=   3.8kbits/s speed=0.00734x elapsed=0:02:41.20    \nframe=  144 fps=0.9 q=46.0 size=       1KiB time=00:00:01.19 bitrate=   3.8kbits/s speed=0.00737x elapsed=0:02:41.77    \nframe=  144 fps=0.9 q=46.0 size=       1KiB time=00:00:01.19 bitrate=   3.8kbits/s speed=0.00734x elapsed=0:02:42.32    \nframe=  145 fps=0.9 q=21.0 size=       1KiB time=00:00:01.20 bitrate=   3.7kbits/s speed=0.00737x elapsed=0:02:42.87    \nframe=  147 fps=0.9 q=46.0 size=       1KiB time=00:00:01.21 bitrate=   3.7kbits/s speed=0.00744x elapsed=0:02:43.42    \nframe=  147 fps=0.9 q=46.0 size=       1KiB time=00:00:01.21 bitrate=   3.7kbits/s speed=0.00742x elapsed=0:02:43.98    \nframe=  148 fps=0.9 q=46.0 size=       1KiB time=00:00:01.22 bitrate=   3.7kbits/s speed=0.00745x elapsed=0:02:44.53    \nframe=  148 fps=0.9 q=46.0 size=       1KiB time=00:00:01.22 bitrate=   3.7kbits/s speed=0.00742x elapsed=0:02:45.08    \nframe=  149 fps=0.9 q=44.0 size=       1KiB time=00:00:01.23 bitrate=   3.6kbits/s speed=0.00745x elapsed=0:02:45.64    \nframe=  150 fps=0.9 q=46.0 size=       1KiB time=00:00:01.24 bitrate=   3.6kbits/s speed=0.00747x elapsed=0:02:46.20    \nframe=  150 fps=0.9 q=46.0 size=       1KiB time=00:00:01.24 bitrate=   3.6kbits/s speed=0.00745x elapsed=0:02:46.76    \nframe=  150 fps=0.9 q=46.0 size=       1KiB time=00:00:01.24 bitrate=   3.6kbits/s speed=0.00742x elapsed=0:02:47.31    \nframe=  151 fps=0.9 q=46.0 size=       1KiB time=00:00:01.25 bitrate=   3.6kbits/s speed=0.00745x elapsed=0:02:47.86    \nframe=  151 fps=0.9 q=46.0 size=       1KiB time=00:00:01.25 bitrate=   3.6kbits/s speed=0.00742x elapsed=0:02:48.42    \nframe=  152 fps=0.9 q=46.0 size=       1KiB time=00:00:01.25 bitrate=   3.6kbits/s speed=0.00745x elapsed=0:02:49.00    \nframe=  154 fps=0.9 q=47.0 size=       1KiB time=00:00:01.27 bitrate=   3.5kbits/s speed=0.00752x elapsed=0:02:49.54    \nframe=  154 fps=0.9 q=47.0 size=       1KiB time=00:00:01.27 bitrate=   3.5kbits/s speed=0.0075x elapsed=0:02:50.10    \nframe=  155 fps=0.9 q=46.0 size=       1KiB time=00:00:01.28 bitrate=   3.5kbits/s speed=0.00752x elapsed=0:02:50.63    \nframe=  155 fps=0.9 q=46.0 size=       1KiB time=00:00:01.28 bitrate=   3.5kbits/s speed=0.00749x elapsed=0:02:51.22    \nframe=  156 fps=0.9 q=42.0 size=       1KiB time=00:00:01.29 bitrate=   3.5kbits/s speed=0.00752x elapsed=0:02:51.80    \nframe=  156 fps=0.9 q=42.0 size=       1KiB time=00:00:01.29 bitrate=   3.5kbits/s speed=0.00749x elapsed=0:02:52.38    \nframe=  157 fps=0.9 q=43.0 size=       1KiB time=00:00:01.30 bitrate=   3.4kbits/s speed=0.00752x elapsed=0:02:52.96    \nframe=  158 fps=0.9 q=46.0 size=       1KiB time=00:00:01.30 bitrate=   3.4kbits/s speed=0.00754x elapsed=0:02:53.54    \nframe=  160 fps=0.9 q=46.0 size=       1KiB time=00:00:01.32 bitrate=   3.4kbits/s speed=0.00761x elapsed=0:02:54.10    \nframe=  160 fps=0.9 q=46.0 size=       1KiB time=00:00:01.32 bitrate=   3.4kbits/s speed=0.00759x elapsed=0:02:54.66    \nframe=  161 fps=0.9 q=23.0 size=       1KiB time=00:00:01.33 bitrate=   3.4kbits/s speed=0.00761x elapsed=0:02:55.22    \nframe=  162 fps=0.9 q=47.0 size=       1KiB time=00:00:01.34 bitrate=   3.3kbits/s speed=0.00763x elapsed=0:02:55.77    \nframe=  162 fps=0.9 q=47.0 size=       1KiB time=00:00:01.34 bitrate=   3.3kbits/s speed=0.00761x elapsed=0:02:56.33    \nframe=  163 fps=0.9 q=46.0 size=       1KiB time=00:00:01.35 bitrate=   3.3kbits/s speed=0.00763x elapsed=0:02:56.92    \nframe=  163 fps=0.9 q=46.0 size=       1KiB time=00:00:01.35 bitrate=   3.3kbits/s speed=0.00761x elapsed=0:02:57.50    \nframe=  163 fps=0.9 q=46.0 size=       1KiB time=00:00:01.35 bitrate=   3.3kbits/s speed=0.00758x elapsed=0:02:58.08    \nframe=  163 fps=0.9 q=46.0 size=       1KiB time=00:00:01.35 bitrate=   3.3kbits/s speed=0.00756x elapsed=0:02:58.64    \nframe=  164 fps=0.9 q=47.0 size=       1KiB time=00:00:01.35 bitrate=   3.3kbits/s speed=0.00758x elapsed=0:02:59.20    \nframe=  164 fps=0.9 q=47.0 size=       1KiB time=00:00:01.35 bitrate=   3.3kbits/s speed=0.00756x elapsed=0:02:59.76    \nframe=  165 fps=0.9 q=44.0 size=       1KiB time=00:00:01.36 bitrate=   3.3kbits/s speed=0.00758x elapsed=0:03:00.36    \nframe=  165 fps=0.9 q=44.0 size=       1KiB time=00:00:01.36 bitrate=   3.3kbits/s speed=0.00755x elapsed=0:03:00.93    \nframe=  166 fps=0.9 q=46.0 size=       1KiB time=00:00:01.37 bitrate=   3.3kbits/s speed=0.00758x elapsed=0:03:01.49    \nframe=  166 fps=0.9 q=46.0 size=       1KiB time=00:00:01.37 bitrate=   3.3kbits/s speed=0.00755x elapsed=0:03:02.05    \nframe=  166 fps=0.9 q=46.0 size=       1KiB time=00:00:01.37 bitrate=   3.3kbits/s speed=0.00753x elapsed=0:03:02.62    \nframe=  166 fps=0.9 q=46.0 size=       1KiB time=00:00:01.37 bitrate=   3.3kbits/s speed=0.00751x elapsed=0:03:03.18    \nframe=  167 fps=0.9 q=44.0 size=       1KiB time=00:00:01.38 bitrate=   3.2kbits/s speed=0.00753x elapsed=0:03:03.75    \nframe=  167 fps=0.9 q=44.0 size=       1KiB time=00:00:01.38 bitrate=   3.2kbits/s speed=0.0075x elapsed=0:03:04.32    \nframe=  168 fps=0.9 q=46.0 size=       1KiB time=00:00:01.39 bitrate=   3.2kbits/s speed=0.00753x elapsed=0:03:04.91    \nframe=  169 fps=0.9 q=36.0 size=       1KiB time=00:00:01.40 bitrate=   3.2kbits/s speed=0.00755x elapsed=0:03:05.47    \nframe=  170 fps=0.9 q=48.0 size=       1KiB time=00:00:01.40 bitrate=   3.2kbits/s speed=0.00757x elapsed=0:03:06.02    \nframe=  171 fps=0.9 q=46.0 size=       1KiB time=00:00:01.40 bitrate=   3.2kbits/s speed=0.00755x elapsed=0:03:06.58    \nframe=  171 fps=0.9 q=46.0 size=       1KiB time=00:00:01.41 bitrate=   3.2kbits/s speed=0.00757x elapsed=0:03:07.13    \nframe=  172 fps=0.9 q=44.0 size=       1KiB time=00:00:01.42 bitrate=   3.1kbits/s speed=0.00759x elapsed=0:03:07.67    \nframe=  173 fps=0.9 q=43.0 size=       1KiB time=00:00:01.43 bitrate=   3.1kbits/s speed=0.00762x elapsed=0:03:08.22    \nframe=  174 fps=0.9 q=47.0 size=       1KiB time=00:00:01.44 bitrate=   3.1kbits/s speed=0.00764x elapsed=0:03:08.78    \nframe=  175 fps=0.9 q=45.0 size=       1KiB time=00:00:01.45 bitrate=   3.1kbits/s speed=0.00766x elapsed=0:03:09.33    \nframe=  177 fps=0.9 q=25.0 size=       1KiB time=00:00:01.46 bitrate=   3.1kbits/s speed=0.00772x elapsed=0:03:09.88    \nframe=  178 fps=0.9 q=48.0 size=       1KiB time=00:00:01.47 bitrate=   3.0kbits/s speed=0.00775x elapsed=0:03:10.42    \nframe=  179 fps=0.9 q=47.0 size=       1KiB time=00:00:01.48 bitrate=   3.0kbits/s speed=0.00777x elapsed=0:03:10.94    \nframe=  179 fps=0.9 q=47.0 size=       1KiB time=00:00:01.48 bitrate=   3.0kbits/s speed=0.00775x elapsed=0:03:11.48    \nframe=  180 fps=0.9 q=48.0 size=       1KiB time=00:00:01.49 bitrate=   3.0kbits/s speed=0.00777x elapsed=0:03:12.01    \nframe=  180 fps=0.9 q=48.0 size=       1KiB time=00:00:01.49 bitrate=   3.0kbits/s speed=0.00775x elapsed=0:03:12.58    \nframe=  181 fps=0.9 q=44.0 size=       1KiB time=00:00:01.50 bitrate=   3.0kbits/s speed=0.00777x elapsed=0:03:13.14    \nframe=  182 fps=0.9 q=47.0 size=       1KiB time=00:00:01.50 bitrate=   3.0kbits/s speed=0.00779x elapsed=0:03:13.68    \nframe=  182 fps=0.9 q=47.0 size=       1KiB time=00:00:01.50 bitrate=   3.0kbits/s speed=0.00777x elapsed=0:03:14.24    \nframe=  182 fps=0.9 q=47.0 size=       1KiB time=00:00:01.50 bitrate=   3.0kbits/s speed=0.00774x elapsed=0:03:14.78    \nframe=  183 fps=0.9 q=44.0 size=       1KiB time=00:00:01.51 bitrate=   3.0kbits/s speed=0.00776x elapsed=0:03:15.33    \nframe=  183 fps=0.9 q=44.0 size=       1KiB time=00:00:01.51 bitrate=   3.0kbits/s speed=0.00774x elapsed=0:03:15.90    \nframe=  184 fps=0.9 q=47.0 size=       1KiB time=00:00:01.52 bitrate=   2.9kbits/s speed=0.00776x elapsed=0:03:16.45    \nframe=  184 fps=0.9 q=47.0 size=       1KiB time=00:00:01.52 bitrate=   2.9kbits/s speed=0.00774x elapsed=0:03:17.02    \nframe=  185 fps=0.9 q=38.0 size=       1KiB time=00:00:01.53 bitrate=   2.9kbits/s speed=0.00776x elapsed=0:03:17.58    \nframe=  187 fps=0.9 q=46.0 size=       1KiB time=00:00:01.55 bitrate=   2.9kbits/s speed=0.00782x elapsed=0:03:18.14    \nframe=  187 fps=0.9 q=46.0 size=       1KiB time=00:00:01.55 bitrate=   2.9kbits/s speed=0.0078x elapsed=0:03:18.72    \nframe=  188 fps=0.9 q=48.0 size=       1KiB time=00:00:01.55 bitrate=   2.9kbits/s speed=0.00782x elapsed=0:03:19.30    \nframe=  189 fps=0.9 q=43.0 size=       1KiB time=00:00:01.56 bitrate=   2.9kbits/s speed=0.00784x elapsed=0:03:19.86    \nframe=  189 fps=0.9 q=43.0 size=       1KiB time=00:00:01.56 bitrate=   2.9kbits/s speed=0.00782x elapsed=0:03:20.44    \nframe=  191 fps=1.0 q=45.0 size=       1KiB time=00:00:01.58 bitrate=   2.8kbits/s speed=0.00788x elapsed=0:03:21.00    \nframe=  191 fps=0.9 q=45.0 size=       1KiB time=00:00:01.58 bitrate=   2.8kbits/s speed=0.00785x elapsed=0:03:21.57    \nframe=  192 fps=0.9 q=47.0 size=       1KiB time=00:00:01.59 bitrate=   2.8kbits/s speed=0.00787x elapsed=0:03:22.13    \nframe=  193 fps=1.0 q=27.0 size=       1KiB time=00:00:01.60 bitrate=   2.8kbits/s speed=0.00789x elapsed=0:03:22.70    \nframe=  194 fps=1.0 q=48.0 size=       1KiB time=00:00:01.60 bitrate=   2.8kbits/s speed=0.00791x elapsed=0:03:23.26    \nframe=  194 fps=1.0 q=48.0 size=       1KiB time=00:00:01.60 bitrate=   2.8kbits/s speed=0.00789x elapsed=0:03:23.82    \nframe=  195 fps=1.0 q=47.0 size=       1KiB time=00:00:01.61 bitrate=   2.8kbits/s speed=0.00791x elapsed=0:03:24.39    \nframe=  196 fps=1.0 q=48.0 size=       1KiB time=00:00:01.62 bitrate=   2.8kbits/s speed=0.00793x elapsed=0:03:24.94    \nframe=  197 fps=1.0 q=44.0 size=       1KiB time=00:00:01.63 bitrate=   2.7kbits/s speed=0.00795x elapsed=0:03:25.48    \nframe=  198 fps=1.0 q=48.0 size=       1KiB time=00:00:01.64 bitrate=   2.7kbits/s speed=0.00797x elapsed=0:03:26.04    \nframe=  198 fps=1.0 q=48.0 size=       1KiB time=00:00:01.64 bitrate=   2.7kbits/s speed=0.00795x elapsed=0:03:26.58    \nframe=  198 fps=1.0 q=48.0 size=       1KiB time=00:00:01.64 bitrate=   2.7kbits/s speed=0.00793x elapsed=0:03:27.14    \nframe=  199 fps=1.0 q=47.0 size=       1KiB time=00:00:01.65 bitrate=   2.7kbits/s speed=0.00794x elapsed=0:03:27.69    \nframe=  199 fps=1.0 q=47.0 size=       1KiB time=00:00:01.65 bitrate=   2.7kbits/s speed=0.00792x elapsed=0:03:28.24    \nframe=  199 fps=1.0 q=47.0 size=       1KiB time=00:00:01.65 bitrate=   2.7kbits/s speed=0.0079x elapsed=0:03:28.81    \nframe=  200 fps=1.0 q=48.0 size=       1KiB time=00:00:01.65 bitrate=   2.7kbits/s speed=0.00792x elapsed=0:03:29.39    \nframe=  201 fps=1.0 q=38.0 size=       1KiB time=00:00:01.66 bitrate=   2.7kbits/s speed=0.00794x elapsed=0:03:29.97    \nframe=  202 fps=1.0 q=48.0 size=       1KiB time=00:00:01.67 bitrate=   2.7kbits/s speed=0.00796x elapsed=0:03:30.54    \nframe=  203 fps=1.0 q=46.0 size=       1KiB time=00:00:01.68 bitrate=   2.7kbits/s speed=0.00797x elapsed=0:03:31.11    \nframe=  203 fps=1.0 q=46.0 size=       1KiB time=00:00:01.68 bitrate=   2.7kbits/s speed=0.00795x elapsed=0:03:31.66    \nframe=  204 fps=1.0 q=48.0 size=       1KiB time=00:00:01.69 bitrate=   2.6kbits/s speed=0.00797x elapsed=0:03:32.22    \nframe=  205 fps=1.0 q=43.0 size=       1KiB time=00:00:01.70 bitrate=   2.6kbits/s speed=0.00799x elapsed=0:03:32.79    \nframe=  206 fps=1.0 q=47.0 size=       1KiB time=00:00:01.70 bitrate=   2.6kbits/s speed=0.00801x elapsed=0:03:33.36    \nframe=  207 fps=1.0 q=45.0 size=       1KiB time=00:00:01.71 bitrate=   2.6kbits/s speed=0.00802x elapsed=0:03:33.94    \nframe=  207 fps=1.0 q=45.0 size=       1KiB time=00:00:01.71 bitrate=   2.6kbits/s speed=0.008x elapsed=0:03:34.54    \nframe=  208 fps=1.0 q=47.0 size=       1KiB time=00:00:01.72 bitrate=   2.6kbits/s speed=0.00802x elapsed=0:03:35.12    \nframe=  208 fps=1.0 q=47.0 size=       1KiB time=00:00:01.72 bitrate=   2.6kbits/s speed=0.008x elapsed=0:03:35.71    \nframe=  209 fps=1.0 q=27.0 size=       1KiB time=00:00:01.73 bitrate=   2.6kbits/s speed=0.00801x elapsed=0:03:36.29    \nframe=  210 fps=1.0 q=48.0 size=       1KiB time=00:00:01.74 bitrate=   2.6kbits/s speed=0.00803x elapsed=0:03:36.87    \nframe=  211 fps=1.0 q=47.0 size=       1KiB time=00:00:01.75 bitrate=   2.6kbits/s speed=0.00805x elapsed=0:03:37.44    \nframe=  211 fps=1.0 q=47.0 size=       1KiB time=00:00:01.75 bitrate=   2.6kbits/s speed=0.00803x elapsed=0:03:38.01    \nframe=  211 fps=1.0 q=47.0 size=       1KiB time=00:00:01.75 bitrate=   2.6kbits/s speed=0.00801x elapsed=0:03:38.57    \nframe=  212 fps=1.0 q=48.0 size=       1KiB time=00:00:01.75 bitrate=   2.5kbits/s speed=0.00802x elapsed=0:03:39.14    \nframe=  213 fps=1.0 q=44.0 size=       1KiB time=00:00:01.76 bitrate=   2.5kbits/s speed=0.00804x elapsed=0:03:39.70    \nframe=  214 fps=1.0 q=47.0 size=       1KiB time=00:00:01.77 bitrate=   2.5kbits/s speed=0.00806x elapsed=0:03:40.25    \nframe=  214 fps=1.0 q=47.0 size=       1KiB time=00:00:01.77 bitrate=   2.5kbits/s speed=0.00804x elapsed=0:03:40.82    \nframe=  214 fps=1.0 q=47.0 size=       1KiB time=00:00:01.77 bitrate=   2.5kbits/s speed=0.00802x elapsed=0:03:41.38    \nframe=  215 fps=1.0 q=44.0 size=       1KiB time=00:00:01.78 bitrate=   2.5kbits/s speed=0.00804x elapsed=0:03:41.93    \nframe=  215 fps=1.0 q=44.0 size=       1KiB time=00:00:01.78 bitrate=   2.5kbits/s speed=0.00801x elapsed=0:03:42.51    \nframe=  216 fps=1.0 q=47.0 size=       1KiB time=00:00:01.79 bitrate=   2.5kbits/s speed=0.00803x elapsed=0:03:43.07    \nframe=  217 fps=1.0 q=38.0 size=       1KiB time=00:00:01.80 bitrate=   2.5kbits/s speed=0.00805x elapsed=0:03:43.63    \nframe=  219 fps=1.0 q=46.0 size=       1KiB time=00:00:01.81 bitrate=   2.5kbits/s speed=0.0081x elapsed=0:03:44.19    \nframe=  219 fps=1.0 q=46.0 size=       1KiB time=00:00:01.81 bitrate=   2.5kbits/s speed=0.00808x elapsed=0:03:44.74    \nframe=  220 fps=1.0 q=48.0 size=       1KiB time=00:00:01.82 bitrate=   2.5kbits/s speed=0.0081x elapsed=0:03:45.28    \nframe=  221 fps=1.0 q=43.0 size=       1KiB time=00:00:01.83 bitrate=   2.4kbits/s speed=0.00812x elapsed=0:03:45.83    \nframe=  221 fps=1.0 q=43.0 size=       1KiB time=00:00:01.83 bitrate=   2.4kbits/s speed=0.0081x elapsed=0:03:46.42    \nframe=  223 fps=1.0 q=46.0 size=       1KiB time=00:00:01.85 bitrate=   2.4kbits/s speed=0.00815x elapsed=0:03:47.01    \nframe=  223 fps=1.0 q=46.0 size=       1KiB time=00:00:01.85 bitrate=   2.4kbits/s speed=0.00813x elapsed=0:03:47.57    \nframe=  224 fps=1.0 q=48.0 size=       1KiB time=00:00:01.85 bitrate=   2.4kbits/s speed=0.00814x elapsed=0:03:48.15    \nframe=  225 fps=1.0 q=27.0 size=       1KiB time=00:00:01.86 bitrate=   2.4kbits/s speed=0.00816x elapsed=0:03:48.70    \nframe=  226 fps=1.0 q=49.0 size=       1KiB time=00:00:01.87 bitrate=   2.4kbits/s speed=0.00818x elapsed=0:03:49.26    \nframe=  226 fps=1.0 q=49.0 size=       1KiB time=00:00:01.87 bitrate=   2.4kbits/s speed=0.00816x elapsed=0:03:49.81    \nframe=  227 fps=1.0 q=48.0 size=       1KiB time=00:00:01.88 bitrate=   2.4kbits/s speed=0.00817x elapsed=0:03:50.39    \nframe=  227 fps=1.0 q=48.0 size=       1KiB time=00:00:01.88 bitrate=   2.4kbits/s speed=0.00815x elapsed=0:03:50.94    \nframe=  227 fps=1.0 q=48.0 size=       1KiB time=00:00:01.88 bitrate=   2.4kbits/s speed=0.00814x elapsed=0:03:51.50    \nframe=  228 fps=1.0 q=41.0 size=       1KiB time=00:00:01.89 bitrate=   2.4kbits/s speed=0.00815x elapsed=0:03:52.07    \nframe=  228 fps=1.0 q=41.0 size=       1KiB time=00:00:01.89 bitrate=   2.4kbits/s speed=0.00813x elapsed=0:03:52.66    \nframe=  229 fps=1.0 q=45.0 size=       1KiB time=00:00:01.90 bitrate=   2.4kbits/s speed=0.00815x elapsed=0:03:53.22    \nframe=  229 fps=1.0 q=45.0 size=       1KiB time=00:00:01.90 bitrate=   2.4kbits/s speed=0.00813x elapsed=0:03:53.80    \nframe=  230 fps=1.0 q=48.0 size=       1KiB time=00:00:01.90 bitrate=   2.3kbits/s speed=0.00814x elapsed=0:03:54.39    \nframe=  230 fps=1.0 q=48.0 size=       1KiB time=00:00:01.90 bitrate=   2.3kbits/s speed=0.00812x elapsed=0:03:54.98    \nframe=  230 fps=1.0 q=48.0 size=       1KiB time=00:00:01.90 bitrate=   2.3kbits/s speed=0.0081x elapsed=0:03:55.56    \nframe=  230 fps=1.0 q=48.0 size=       1KiB time=00:00:01.90 bitrate=   2.3kbits/s speed=0.00808x elapsed=0:03:56.14    \nframe=  231 fps=1.0 q=45.0 size=       1KiB time=00:00:01.91 bitrate=   2.3kbits/s speed=0.0081x elapsed=0:03:56.69    \nframe=  231 fps=1.0 q=45.0 size=       1KiB time=00:00:01.91 bitrate=   2.3kbits/s speed=0.00808x elapsed=0:03:57.26    \nframe=  232 fps=1.0 q=48.0 size=       1KiB time=00:00:01.92 bitrate=   2.3kbits/s speed=0.00809x elapsed=0:03:57.83    \nframe=  232 fps=1.0 q=48.0 size=       1KiB time=00:00:01.92 bitrate=   2.3kbits/s speed=0.00807x elapsed=0:03:58.40    \nframe=  233 fps=1.0 q=39.0 size=       1KiB time=00:00:01.93 bitrate=   2.3kbits/s speed=0.00809x elapsed=0:03:58.95    \nframe=  235 fps=1.0 q=47.0 size=       1KiB time=00:00:01.95 bitrate=   2.3kbits/s speed=0.00814x elapsed=0:03:59.51    \nframe=  235 fps=1.0 q=47.0 size=       1KiB time=00:00:01.95 bitrate=   2.3kbits/s speed=0.00812x elapsed=0:04:00.09    \nframe=  236 fps=1.0 q=49.0 size=       1KiB time=00:00:01.95 bitrate=   2.3kbits/s speed=0.00814x elapsed=0:04:00.68    \nframe=  236 fps=1.0 q=49.0 size=       1KiB time=00:00:01.95 bitrate=   2.3kbits/s speed=0.00812x elapsed=0:04:01.25    \nframe=  237 fps=1.0 q=44.0 size=       1KiB time=00:00:01.96 bitrate=   2.3kbits/s speed=0.00813x elapsed=0:04:01.81    \nframe=  239 fps=1.0 q=47.0 size=       1KiB time=00:00:01.98 bitrate=   2.3kbits/s speed=0.00818x elapsed=0:04:02.38    \nframe=  239 fps=1.0 q=47.0 size=       1KiB time=00:00:01.98 bitrate=   2.3kbits/s speed=0.00816x elapsed=0:04:02.96    \nframe=  239 fps=1.0 q=47.0 size=       1KiB time=00:00:01.98 bitrate=   2.3kbits/s speed=0.00814x elapsed=0:04:03.54    \nframe=  240 fps=1.0 q=49.0 size=       1KiB time=00:00:01.99 bitrate=   2.2kbits/s speed=0.00816x elapsed=0:04:04.11    \nframe=  240 fps=1.0 q=49.0 size=       1KiB time=00:00:01.99 bitrate=   2.2kbits/s speed=0.00814x elapsed=0:04:04.65    \nframe=  242 fps=1.0 q=50.0 size=       1KiB time=00:00:02.00 bitrate=   2.2kbits/s speed=0.00819x elapsed=0:04:05.20    \nframe=  243 fps=1.0 q=49.0 size=       1KiB time=00:00:02.01 bitrate=   2.2kbits/s speed=0.00821x elapsed=0:04:05.77    \nframe=  243 fps=1.0 q=49.0 size=       1KiB time=00:00:02.01 bitrate=   2.2kbits/s speed=0.00819x elapsed=0:04:06.33    \nframe=  244 fps=1.0 q=50.0 size=       1KiB time=00:00:02.02 bitrate=   2.2kbits/s speed=0.0082x elapsed=0:04:06.87    \nframe=  245 fps=1.0 q=46.0 size=       1KiB time=00:00:02.03 bitrate=   2.2kbits/s speed=0.00822x elapsed=0:04:07.40    \nframe=  245 fps=1.0 q=46.0 size=       1KiB time=00:00:02.03 bitrate=   2.2kbits/s speed=0.0082x elapsed=0:04:07.95    \nframe=  246 fps=1.0 q=49.0 size=       1KiB time=00:00:02.04 bitrate=   2.2kbits/s speed=0.00821x elapsed=0:04:08.52    \nframe=  246 fps=1.0 q=49.0 size=       1KiB time=00:00:02.04 bitrate=   2.2kbits/s speed=0.0082x elapsed=0:04:09.11    \nframe=  247 fps=1.0 q=46.0 size=       1KiB time=00:00:02.05 bitrate=   2.2kbits/s speed=0.00821x elapsed=0:04:09.66    \nframe=  247 fps=1.0 q=46.0 size=       1KiB time=00:00:02.05 bitrate=   2.2kbits/s speed=0.00819x elapsed=0:04:10.22    \nframe=  248 fps=1.0 q=49.0 size=       1KiB time=00:00:02.05 bitrate=   2.2kbits/s speed=0.00821x elapsed=0:04:10.78    \nframe=  249 fps=1.0 q=40.0 size=       1KiB time=00:00:02.06 bitrate=   2.2kbits/s speed=0.00822x elapsed=0:04:11.32    \nframe=  250 fps=1.0 q=50.0 size=       1KiB time=00:00:02.07 bitrate=   2.2kbits/s speed=0.00824x elapsed=0:04:11.87    \nframe=  251 fps=1.0 q=48.0 size=       1KiB time=00:00:02.08 bitrate=   2.2kbits/s speed=0.00825x elapsed=0:04:12.42    \nframe=  252 fps=1.0 q=50.0 size=       1KiB time=00:00:02.09 bitrate=   2.1kbits/s speed=0.00827x elapsed=0:04:12.99    \nframe=  252 fps=1.0 q=50.0 size=       1KiB time=00:00:02.09 bitrate=   2.1kbits/s speed=0.00825x elapsed=0:04:13.59    \nframe=  253 fps=1.0 q=45.0 size=       1KiB time=00:00:02.10 bitrate=   2.1kbits/s speed=0.00826x elapsed=0:04:14.18    \nframe=  253 fps=1.0 q=45.0 size=       1KiB time=00:00:02.10 bitrate=   2.1kbits/s speed=0.00824x elapsed=0:04:14.75    \nframe=  255 fps=1.0 q=48.0 size=       1KiB time=00:00:02.11 bitrate=   2.1kbits/s speed=0.00829x elapsed=0:04:15.33    \nframe=  255 fps=1.0 q=48.0 size=       1KiB time=00:00:02.11 bitrate=   2.1kbits/s speed=0.00827x elapsed=0:04:15.91    \nframe=  256 fps=1.0 q=50.0 size=       1KiB time=00:00:02.12 bitrate=   2.1kbits/s speed=0.00828x elapsed=0:04:16.49    \nframe=  257 fps=1.0 q=29.0 size=       1KiB time=00:00:02.13 bitrate=   2.1kbits/s speed=0.0083x elapsed=0:04:17.05    \nframe=  259 fps=1.0 q=50.0 size=       1KiB time=00:00:02.15 bitrate=   2.1kbits/s speed=0.00834x elapsed=0:04:17.64    \nframe=  259 fps=1.0 q=50.0 size=       1KiB time=00:00:02.15 bitrate=   2.1kbits/s speed=0.00833x elapsed=0:04:18.22    \nframe=  259 fps=1.0 q=50.0 size=       1KiB time=00:00:02.15 bitrate=   2.1kbits/s speed=0.00831x elapsed=0:04:18.78    \nframe=  260 fps=1.0 q=51.0 size=       1KiB time=00:00:02.15 bitrate=   2.1kbits/s speed=0.00832x elapsed=0:04:19.36    \nframe=  260 fps=1.0 q=51.0 size=       1KiB time=00:00:02.15 bitrate=   2.1kbits/s speed=0.0083x elapsed=0:04:19.91    \nframe=  261 fps=1.0 q=47.0 size=       1KiB time=00:00:02.16 bitrate=   2.1kbits/s speed=0.00832x elapsed=0:04:20.49    \nframe=  262 fps=1.0 q=50.0 size=       1KiB time=00:00:02.17 bitrate=   2.1kbits/s speed=0.00833x elapsed=0:04:21.07    \nframe=  262 fps=1.0 q=50.0 size=       1KiB time=00:00:02.17 bitrate=   2.1kbits/s speed=0.00831x elapsed=0:04:21.66    \nframe=  262 fps=1.0 q=50.0 size=       1KiB time=00:00:02.17 bitrate=   2.1kbits/s speed=0.00829x elapsed=0:04:22.22    \nframe=  263 fps=1.0 q=47.0 size=       1KiB time=00:00:02.18 bitrate=   2.1kbits/s speed=0.00831x elapsed=0:04:22.78    \nframe=  264 fps=1.0 q=50.0 size=       1KiB time=00:00:02.19 bitrate=   2.0kbits/s speed=0.00832x elapsed=0:04:23.33    \nframe=  265 fps=1.0 q=41.0 size=       1KiB time=00:00:02.19 bitrate=   2.0kbits/s speed=0.00831x elapsed=0:04:23.89    \nframe=  265 fps=1.0 q=41.0 size=       1KiB time=00:00:02.20 bitrate=   2.0kbits/s speed=0.00832x elapsed=0:04:24.46    \nframe=  267 fps=1.0 q=49.0 size=       1KiB time=00:00:02.21 bitrate=   2.0kbits/s speed=0.00836x elapsed=0:04:25.02    \nframe=  267 fps=1.0 q=49.0 size=       1KiB time=00:00:02.21 bitrate=   2.0kbits/s speed=0.00835x elapsed=0:04:25.60    \nframe=  268 fps=1.0 q=51.0 size=       1KiB time=00:00:02.22 bitrate=   2.0kbits/s speed=0.00836x elapsed=0:04:26.17    \nframe=  269 fps=1.0 q=46.0 size=       1KiB time=00:00:02.23 bitrate=   2.0kbits/s speed=0.00837x elapsed=0:04:26.75    \nframe=  271 fps=1.0 q=49.0 size=       1KiB time=00:00:02.25 bitrate=   2.0kbits/s speed=0.00842x elapsed=0:04:27.32    \nframe=  271 fps=1.0 q=49.0 size=       1KiB time=00:00:02.25 bitrate=   2.0kbits/s speed=0.0084x elapsed=0:04:27.90    \nframe=  271 fps=1.0 q=49.0 size=       1KiB time=00:00:02.25 bitrate=   2.0kbits/s speed=0.00838x elapsed=0:04:28.49    \nframe=  272 fps=1.0 q=51.0 size=       1KiB time=00:00:02.25 bitrate=   2.0kbits/s speed=0.00839x elapsed=0:04:29.06    \nframe=  273 fps=1.0 q=31.0 size=       1KiB time=00:00:02.26 bitrate=   2.0kbits/s speed=0.00841x elapsed=0:04:29.65    \nframe=  274 fps=1.0 q=51.0 size=       1KiB time=00:00:02.27 bitrate=   2.0kbits/s speed=0.00842x elapsed=0:04:30.22    \nframe=  275 fps=1.0 q=50.0 size=       1KiB time=00:00:02.28 bitrate=   2.0kbits/s speed=0.00843x elapsed=0:04:30.78    \nframe=  276 fps=1.0 q=51.0 size=       1KiB time=00:00:02.28 bitrate=   2.0kbits/s speed=0.00841x elapsed=0:04:31.34    \nframe=  276 fps=1.0 q=51.0 size=       1KiB time=00:00:02.29 bitrate=   2.0kbits/s speed=0.00843x elapsed=0:04:31.90    \nframe=  277 fps=1.0 q=48.0 size=       1KiB time=00:00:02.30 bitrate=   1.9kbits/s speed=0.00844x elapsed=0:04:32.46    \nframe=  278 fps=1.0 q=51.0 size=       1KiB time=00:00:02.30 bitrate=   1.9kbits/s speed=0.00845x elapsed=0:04:33.02    \nframe=  278 fps=1.0 q=51.0 size=       1KiB time=00:00:02.30 bitrate=   1.9kbits/s speed=0.00844x elapsed=0:04:33.58    \nframe=  278 fps=1.0 q=51.0 size=       1KiB time=00:00:02.30 bitrate=   1.9kbits/s speed=0.00842x elapsed=0:04:34.15    \nframe=  279 fps=1.0 q=50.0 size=       1KiB time=00:00:02.31 bitrate=   1.9kbits/s speed=0.00843x elapsed=0:04:34.73    \nframe=  279 fps=1.0 q=50.0 size=       1KiB time=00:00:02.31 bitrate=   1.9kbits/s speed=0.00841x elapsed=0:04:35.32    \nframe=  279 fps=1.0 q=50.0 size=       1KiB time=00:00:02.31 bitrate=   1.9kbits/s speed=0.0084x elapsed=0:04:35.89    \nframe=  281 fps=1.0 q=43.0 size=       1KiB time=00:00:02.33 bitrate=   1.9kbits/s speed=0.00844x elapsed=0:04:36.45    \nframe=  282 fps=1.0 q=51.0 size=       1KiB time=00:00:02.34 bitrate=   1.9kbits/s speed=0.00845x elapsed=0:04:37.00    \nframe=  283 fps=1.0 q=49.0 size=       1KiB time=00:00:02.35 bitrate=   1.9kbits/s speed=0.00847x elapsed=0:04:37.57    \nframe=  283 fps=1.0 q=49.0 size=       1KiB time=00:00:02.35 bitrate=   1.9kbits/s speed=0.00845x elapsed=0:04:38.15    \nframe=  284 fps=1.0 q=48.0 size=       1KiB time=00:00:02.35 bitrate=   1.9kbits/s speed=0.00846x elapsed=0:04:38.70    \nframe=  285 fps=1.0 q=46.0 size=       1KiB time=00:00:02.36 bitrate=   1.9kbits/s speed=0.00847x elapsed=0:04:39.27    \nframe=  285 fps=1.0 q=46.0 size=       1KiB time=00:00:02.36 bitrate=   1.9kbits/s speed=0.00846x elapsed=0:04:39.83    \nframe=  287 fps=1.0 q=48.0 size=       1KiB time=00:00:02.38 bitrate=   1.9kbits/s speed=0.0085x elapsed=0:04:40.40    \nframe=  287 fps=1.0 q=48.0 size=       1KiB time=00:00:02.38 bitrate=   1.9kbits/s speed=0.00848x elapsed=0:04:40.96    \nframe=  289 fps=1.0 q=33.0 size=       1KiB time=00:00:02.40 bitrate=   1.9kbits/s speed=0.00852x elapsed=0:04:41.52    \nframe=  290 fps=1.0 q=52.0 size=       1KiB time=00:00:02.40 bitrate=   1.9kbits/s speed=0.00854x elapsed=0:04:42.10    \nframe=  291 fps=1.0 q=51.0 size=       1KiB time=00:00:02.41 bitrate=   1.9kbits/s speed=0.00855x elapsed=0:04:42.67    \nframe=  291 fps=1.0 q=51.0 size=       1KiB time=00:00:02.41 bitrate=   1.9kbits/s speed=0.00853x elapsed=0:04:43.26    \nframe=  291 fps=1.0 q=51.0 size=       1KiB time=00:00:02.41 bitrate=   1.9kbits/s speed=0.00851x elapsed=0:04:43.84    \nframe=  292 fps=1.0 q=47.0 size=       1KiB time=00:00:02.42 bitrate=   1.8kbits/s speed=0.00853x elapsed=0:04:44.40    \nframe=  293 fps=1.0 q=48.0 size=       1KiB time=00:00:02.42 bitrate=   1.8kbits/s speed=0.00851x elapsed=0:04:44.98    \nframe=  293 fps=1.0 q=48.0 size=       1KiB time=00:00:02.43 bitrate=   1.8kbits/s speed=0.00852x elapsed=0:04:45.56    \nframe=  294 fps=1.0 q=50.0 size=       1KiB time=00:00:02.44 bitrate=   1.8kbits/s speed=0.00853x elapsed=0:04:46.15    \nframe=  294 fps=1.0 q=50.0 size=       1KiB time=00:00:02.44 bitrate=   1.8kbits/s speed=0.00852x elapsed=0:04:46.72    \nframe=  294 fps=1.0 q=50.0 size=       1KiB time=00:00:02.44 bitrate=   1.8kbits/s speed=0.0085x elapsed=0:04:47.31    \nframe=  295 fps=1.0 q=47.0 size=       1KiB time=00:00:02.45 bitrate=   1.8kbits/s speed=0.00851x elapsed=0:04:47.88    \nframe=  295 fps=1.0 q=47.0 size=       1KiB time=00:00:02.45 bitrate=   1.8kbits/s speed=0.00849x elapsed=0:04:48.45    \nframe=  295 fps=1.0 q=47.0 size=       1KiB time=00:00:02.45 bitrate=   1.8kbits/s speed=0.00848x elapsed=0:04:49.04    \nframe=  296 fps=1.0 q=50.0 size=       1KiB time=00:00:02.45 bitrate=   1.8kbits/s speed=0.00849x elapsed=0:04:49.62    \nframe=  296 fps=1.0 q=50.0 size=       1KiB time=00:00:02.45 bitrate=   1.8kbits/s speed=0.00847x elapsed=0:04:50.21    \nframe=  297 fps=1.0 q=43.0 size=       1KiB time=00:00:02.46 bitrate=   1.8kbits/s speed=0.00848x elapsed=0:04:50.79    \nframe=  299 fps=1.0 q=50.0 size=       1KiB time=00:00:02.48 bitrate=   1.8kbits/s speed=0.00852x elapsed=0:04:51.36    \nframe=  299 fps=1.0 q=50.0 size=       1KiB time=00:00:02.48 bitrate=   1.8kbits/s speed=0.00851x elapsed=0:04:51.94    \nframe=  300 fps=1.0 q=52.0 size=       1KiB time=00:00:02.48 bitrate=   1.8kbits/s speed=0.00849x elapsed=0:04:52.52    \nframe=  300 fps=1.0 q=52.0 size=       1KiB time=00:00:02.49 bitrate=   1.8kbits/s speed=0.0085x elapsed=0:04:53.08    \nframe=  301 fps=1.0 q=46.0 size=       1KiB time=00:00:02.50 bitrate=   1.8kbits/s speed=0.00851x elapsed=0:04:53.66    \nframe=  303 fps=1.0 q=48.0 size=       1KiB time=00:00:02.51 bitrate=   1.8kbits/s speed=0.00855x elapsed=0:04:54.22    \nframe=  304 fps=1.0 q=50.0 size=       1KiB time=00:00:02.51 bitrate=   1.8kbits/s speed=0.00854x elapsed=0:04:54.78    \nframe=  304 fps=1.0 q=50.0 size=       1KiB time=00:00:02.52 bitrate=   1.8kbits/s speed=0.00855x elapsed=0:04:55.34    \nframe=  305 fps=1.0 q=34.0 size=       1KiB time=00:00:02.53 bitrate=   1.8kbits/s speed=0.00856x elapsed=0:04:55.90    \nframe=  306 fps=1.0 q=51.0 size=       1KiB time=00:00:02.54 bitrate=   1.8kbits/s speed=0.00857x elapsed=0:04:56.45    \nframe=  307 fps=1.0 q=50.0 size=       1KiB time=00:00:02.55 bitrate=   1.8kbits/s speed=0.00859x elapsed=0:04:57.00    \nframe=  307 fps=1.0 q=50.0 size=       1KiB time=00:00:02.55 bitrate=   1.8kbits/s speed=0.00857x elapsed=0:04:57.54    \nframe=  308 fps=1.0 q=51.0 size=       1KiB time=00:00:02.55 bitrate=   1.8kbits/s speed=0.00858x elapsed=0:04:58.09    \nframe=  309 fps=1.0 q=48.0 size=       1KiB time=00:00:02.56 bitrate=   1.7kbits/s speed=0.00859x elapsed=0:04:58.64    \nframe=  310 fps=1.0 q=52.0 size=       1KiB time=00:00:02.57 bitrate=   1.7kbits/s speed=0.00861x elapsed=0:04:59.20    \nframe=  310 fps=1.0 q=52.0 size=       1KiB time=00:00:02.57 bitrate=   1.7kbits/s speed=0.00859x elapsed=0:04:59.77    \nframe=  310 fps=1.0 q=52.0 size=       1KiB time=00:00:02.57 bitrate=   1.7kbits/s speed=0.00857x elapsed=0:05:00.36    \nframe=  311 fps=1.0 q=46.0 size=       1KiB time=00:00:02.58 bitrate=   1.7kbits/s speed=0.00858x elapsed=0:05:00.92    \nframe=  311 fps=1.0 q=46.0 size=       1KiB time=00:00:02.58 bitrate=   1.7kbits/s speed=0.00857x elapsed=0:05:01.49    \nframe=  312 fps=1.0 q=52.0 size=       1KiB time=00:00:02.59 bitrate=   1.7kbits/s speed=0.00858x elapsed=0:05:02.07    \nframe=  312 fps=1.0 q=52.0 size=       1KiB time=00:00:02.59 bitrate=   1.7kbits/s speed=0.00856x elapsed=0:05:02.64    \nframe=  314 fps=1.0 q=52.0 size=       1KiB time=00:00:02.60 bitrate=   1.7kbits/s speed=0.0086x elapsed=0:05:03.24    \nframe=  315 fps=1.0 q=49.0 size=       1KiB time=00:00:02.61 bitrate=   1.7kbits/s speed=0.00861x elapsed=0:05:03.82    \nframe=  315 fps=1.0 q=49.0 size=       1KiB time=00:00:02.61 bitrate=   1.7kbits/s speed=0.0086x elapsed=0:05:04.39    \nframe=  316 fps=1.0 q=52.0 size=       1KiB time=00:00:02.62 bitrate=   1.7kbits/s speed=0.00861x elapsed=0:05:04.97    \nframe=  317 fps=1.0 q=45.0 size=       1KiB time=00:00:02.63 bitrate=   1.7kbits/s speed=0.00862x elapsed=0:05:05.53    \nframe=  319 fps=1.0 q=49.0 size=       1KiB time=00:00:02.64 bitrate=   1.7kbits/s speed=0.00863x elapsed=0:05:06.09    \nframe=  320 fps=1.0 q=52.0 size=       1KiB time=00:00:02.65 bitrate=   1.7kbits/s speed=0.00867x elapsed=0:05:06.63    \nframe=  322 fps=1.0 q=52.0 size=       1KiB time=00:00:02.67 bitrate=   1.7kbits/s speed=0.00871x elapsed=0:05:07.19    \nframe=  323 fps=1.0 q=51.0 size=       1KiB time=00:00:02.68 bitrate=   1.7kbits/s speed=0.00872x elapsed=0:05:07.74    \nframe=  323 fps=1.0 q=51.0 size=       1KiB time=00:00:02.68 bitrate=   1.7kbits/s speed=0.0087x elapsed=0:05:08.32    \nframe=  324 fps=1.0 q=52.0 size=       1KiB time=00:00:02.68 bitrate=   1.7kbits/s speed=0.00869x elapsed=0:05:08.91    \nframe=  325 fps=1.1 q=49.0 size=       1KiB time=00:00:02.70 bitrate=   1.7kbits/s speed=0.00872x elapsed=0:05:09.46    \nframe=  326 fps=1.1 q=52.0 size=       1KiB time=00:00:02.70 bitrate=   1.7kbits/s speed=0.00874x elapsed=0:05:10.01    \nframe=  326 fps=1.0 q=52.0 size=       1KiB time=00:00:02.70 bitrate=   1.7kbits/s speed=0.00872x elapsed=0:05:10.56    \nframe=  327 fps=1.1 q=46.0 size=       1KiB time=00:00:02.71 bitrate=   1.6kbits/s speed=0.00873x elapsed=0:05:11.11    \nframe=  327 fps=1.0 q=46.0 size=       1KiB time=00:00:02.71 bitrate=   1.6kbits/s speed=0.00872x elapsed=0:05:11.67    \nframe=  328 fps=1.1 q=52.0 size=       1KiB time=00:00:02.72 bitrate=   1.6kbits/s speed=0.00873x elapsed=0:05:12.24    \nframe=  330 fps=1.1 q=52.0 size=       1KiB time=00:00:02.73 bitrate=   1.6kbits/s speed=0.00874x elapsed=0:05:12.81    \nframe=  331 fps=1.1 q=49.0 size=       1KiB time=00:00:02.75 bitrate=   1.6kbits/s speed=0.00877x elapsed=0:05:13.41    \nframe=  331 fps=1.1 q=49.0 size=       1KiB time=00:00:02.75 bitrate=   1.6kbits/s speed=0.00876x elapsed=0:05:13.98    \nframe=  332 fps=1.1 q=52.0 size=       1KiB time=00:00:02.75 bitrate=   1.6kbits/s speed=0.00877x elapsed=0:05:14.55    \nframe=  333 fps=1.1 q=45.0 size=       1KiB time=00:00:02.75 bitrate=   1.6kbits/s speed=0.00875x elapsed=0:05:15.13    \nframe=  333 fps=1.1 q=45.0 size=       1KiB time=00:00:02.76 bitrate=   1.6kbits/s speed=0.00876x elapsed=0:05:15.71    \nframe=  335 fps=1.1 q=48.0 size=       1KiB time=00:00:02.78 bitrate=   1.6kbits/s speed=0.0088x elapsed=0:05:16.28    \nframe=  337 fps=1.1 q=33.0 size=       1KiB time=00:00:02.79 bitrate=   1.6kbits/s speed=0.00881x elapsed=0:05:16.85    \nframe=  338 fps=1.1 q=51.0 size=       1KiB time=00:00:02.80 bitrate=   1.6kbits/s speed=0.00885x elapsed=0:05:17.40    \nframe=  339 fps=1.1 q=50.0 size=       1KiB time=00:00:02.81 bitrate=   1.6kbits/s speed=0.00886x elapsed=0:05:17.95    \nframe=  339 fps=1.1 q=50.0 size=       1KiB time=00:00:02.81 bitrate=   1.6kbits/s speed=0.00884x elapsed=0:05:18.51    \nframe=  341 fps=1.1 q=48.0 size=       1KiB time=00:00:02.83 bitrate=   1.6kbits/s speed=0.00888x elapsed=0:05:19.07    \nframe=  342 fps=1.1 q=49.0 size=       1KiB time=00:00:02.84 bitrate=   1.6kbits/s speed=0.00889x elapsed=0:05:19.62    \nframe=  342 fps=1.1 q=49.0 size=       1KiB time=00:00:02.84 bitrate=   1.6kbits/s speed=0.00888x elapsed=0:05:20.17    \nframe=  343 fps=1.1 q=46.0 size=       1KiB time=00:00:02.85 bitrate=   1.6kbits/s speed=0.00889x elapsed=0:05:20.71    \nframe=  343 fps=1.1 q=46.0 size=       1KiB time=00:00:02.85 bitrate=   1.6kbits/s speed=0.00887x elapsed=0:05:21.29    \nframe=  344 fps=1.1 q=49.0 size=       1KiB time=00:00:02.85 bitrate=   1.6kbits/s speed=0.00885x elapsed=0:05:21.87    \nframe=  346 fps=1.1 q=50.0 size=       1KiB time=00:00:02.87 bitrate=   1.6kbits/s speed=0.00892x elapsed=0:05:22.45    \nframe=  347 fps=1.1 q=48.0 size=       1KiB time=00:00:02.88 bitrate=   1.6kbits/s speed=0.00893x elapsed=0:05:23.01    \nframe=  347 fps=1.1 q=48.0 size=       1KiB time=00:00:02.88 bitrate=   1.6kbits/s speed=0.00891x elapsed=0:05:23.58    \nframe=  348 fps=1.1 q=49.0 size=       1KiB time=00:00:02.89 bitrate=   1.5kbits/s speed=0.00892x elapsed=0:05:24.15    \nframe=  350 fps=1.1 q=50.0 size=       1KiB time=00:00:02.90 bitrate=   1.5kbits/s speed=0.00896x elapsed=0:05:24.70    \nframe=  352 fps=1.1 q=50.0 size=       1KiB time=00:00:02.92 bitrate=   1.5kbits/s speed=0.00899x elapsed=0:05:25.26    \nframe=  352 fps=1.1 q=50.0 size=       1KiB time=00:00:02.92 bitrate=   1.5kbits/s speed=0.00898x elapsed=0:05:25.82    \nframe=  353 fps=1.1 q=32.0 size=       1KiB time=00:00:02.93 bitrate=   1.5kbits/s speed=0.00899x elapsed=0:05:26.40    \nframe=  354 fps=1.1 q=51.0 size=       1KiB time=00:00:02.94 bitrate=   1.5kbits/s speed=0.009x elapsed=0:05:26.98    \nframe=  355 fps=1.1 q=50.0 size=       1KiB time=00:00:02.95 bitrate=   1.5kbits/s speed=0.00901x elapsed=0:05:27.55    \nframe=  355 fps=1.1 q=50.0 size=       1KiB time=00:00:02.95 bitrate=   1.5kbits/s speed=0.00899x elapsed=0:05:28.13    \nframe=  356 fps=1.1 q=51.0 size=       1KiB time=00:00:02.95 bitrate=   1.5kbits/s speed=0.009x elapsed=0:05:28.69    \nframe=  358 fps=1.1 q=51.0 size=       1KiB time=00:00:02.97 bitrate=   1.5kbits/s speed=0.00904x elapsed=0:05:29.24    \nframe=  358 fps=1.1 q=51.0 size=       1KiB time=00:00:02.97 bitrate=   1.5kbits/s speed=0.00902x elapsed=0:05:29.79    \nframe=  359 fps=1.1 q=50.0 size=       1KiB time=00:00:02.98 bitrate=   1.5kbits/s speed=0.00903x elapsed=0:05:30.35    \nframe=  359 fps=1.1 q=50.0 size=       1KiB time=00:00:02.98 bitrate=   1.5kbits/s speed=0.00901x elapsed=0:05:30.93    \nframe=  360 fps=1.1 q=51.0 size=       1KiB time=00:00:02.99 bitrate=   1.5kbits/s speed=0.00902x elapsed=0:05:31.51    \nframe=  362 fps=1.1 q=50.0 size=       1KiB time=00:00:03.00 bitrate=   1.5kbits/s speed=0.00906x elapsed=0:05:32.05    \nframe=  362 fps=1.1 q=50.0 size=       1KiB time=00:00:03.00 bitrate=   1.5kbits/s speed=0.00904x elapsed=0:05:32.61    \nframe=  363 fps=1.1 q=48.0 size=       1KiB time=00:00:03.01 bitrate=   1.5kbits/s speed=0.00905x elapsed=0:05:33.19    \nframe=  363 fps=1.1 q=48.0 size=       1KiB time=00:00:03.01 bitrate=   1.5kbits/s speed=0.00904x elapsed=0:05:33.73    \nframe=  366 fps=1.1 q=50.0 size=       1KiB time=00:00:03.03 bitrate=   1.5kbits/s speed=0.00907x elapsed=0:05:34.27    \nframe=  367 fps=1.1 q=48.0 size=       1KiB time=00:00:03.05 bitrate=   1.5kbits/s speed=0.00911x elapsed=0:05:34.85    \nframe=  368 fps=1.1 q=44.0 size=       1KiB time=00:00:03.05 bitrate=   1.5kbits/s speed=0.00912x elapsed=0:05:35.46    \nframe=  369 fps=1.1 q=32.0 size=       1KiB time=00:00:03.06 bitrate=   1.5kbits/s speed=0.00913x elapsed=0:05:36.04    \nframe=  370 fps=1.1 q=51.0 size=       1KiB time=00:00:03.07 bitrate=   1.5kbits/s speed=0.00914x elapsed=0:05:36.61    \nframe=  371 fps=1.1 q=50.0 size=       1KiB time=00:00:03.08 bitrate=   1.5kbits/s speed=0.00914x elapsed=0:05:37.20    \nframe=  371 fps=1.1 q=50.0 size=       1KiB time=00:00:03.08 bitrate=   1.5kbits/s speed=0.00913x elapsed=0:05:37.79    \nframe=  372 fps=1.1 q=51.0 size=       1KiB time=00:00:03.09 bitrate=   1.4kbits/s speed=0.00914x elapsed=0:05:38.38    \nframe=  373 fps=1.1 q=48.0 size=       1KiB time=00:00:03.10 bitrate=   1.4kbits/s speed=0.00915x elapsed=0:05:38.95    \nframe=  374 fps=1.1 q=51.0 size=       1KiB time=00:00:03.10 bitrate=   1.4kbits/s speed=0.00916x elapsed=0:05:39.51    \nframe=  374 fps=1.1 q=51.0 size=       1KiB time=00:00:03.10 bitrate=   1.4kbits/s speed=0.00914x elapsed=0:05:40.08    \nframe=  375 fps=1.1 q=50.0 size=       1KiB time=00:00:03.11 bitrate=   1.4kbits/s speed=0.00915x elapsed=0:05:40.65    \nframe=  377 fps=1.1 q=44.0 size=       1KiB time=00:00:03.13 bitrate=   1.4kbits/s speed=0.00918x elapsed=0:05:41.22    \nframe=  378 fps=1.1 q=50.0 size=       1KiB time=00:00:03.14 bitrate=   1.4kbits/s speed=0.00919x elapsed=0:05:41.77    \nframe=  379 fps=1.1 q=48.0 size=       1KiB time=00:00:03.15 bitrate=   1.4kbits/s speed=0.0092x elapsed=0:05:42.35    \nframe=  380 fps=1.1 q=47.0 size=       1KiB time=00:00:03.15 bitrate=   1.4kbits/s speed=0.00921x elapsed=0:05:42.93    \nframe=  382 fps=1.1 q=49.0 size=       1KiB time=00:00:03.17 bitrate=   1.4kbits/s speed=0.00924x elapsed=0:05:43.53    \nframe=  384 fps=1.1 q=44.0 size=       1KiB time=00:00:03.18 bitrate=   1.4kbits/s speed=0.00925x elapsed=0:05:44.13    \nframe=  385 fps=1.1 q=32.0 size=       1KiB time=00:00:03.19 bitrate=   1.4kbits/s speed=0.00926x elapsed=0:05:44.71    \nframe=  385 fps=1.1 q=32.0 size=       1KiB time=00:00:03.20 bitrate=   1.4kbits/s speed=0.00927x elapsed=0:05:45.28    \nframe=  386 fps=1.1 q=50.0 size=       1KiB time=00:00:03.20 bitrate=   1.4kbits/s speed=0.00928x elapsed=0:05:45.87    \nframe=  387 fps=1.1 q=49.0 size=       1KiB time=00:00:03.21 bitrate=   1.4kbits/s speed=0.00928x elapsed=0:05:46.44    \nframe=  388 fps=1.1 q=50.0 size=       1KiB time=00:00:03.22 bitrate=   1.4kbits/s speed=0.00929x elapsed=0:05:46.99    \nframe=  389 fps=1.1 q=47.0 size=       1KiB time=00:00:03.23 bitrate=   1.4kbits/s speed=0.0093x elapsed=0:05:47.56    \nframe=  390 fps=1.1 q=50.0 size=       1KiB time=00:00:03.24 bitrate=   1.4kbits/s speed=0.00931x elapsed=0:05:48.11    \nframe=  391 fps=1.1 q=49.0 size=       1KiB time=00:00:03.25 bitrate=   1.4kbits/s speed=0.00932x elapsed=0:05:48.65    \nframe=  393 fps=1.1 q=43.0 size=       1KiB time=00:00:03.26 bitrate=   1.4kbits/s speed=0.00935x elapsed=0:05:49.21    \nframe=  394 fps=1.1 q=50.0 size=       1KiB time=00:00:03.27 bitrate=   1.4kbits/s speed=0.00936x elapsed=0:05:49.76    \nframe=  396 fps=1.1 q=46.0 size=       1KiB time=00:00:03.29 bitrate=   1.4kbits/s speed=0.0094x elapsed=0:05:50.32    \nframe=  398 fps=1.1 q=49.0 size=       1KiB time=00:00:03.30 bitrate=   1.4kbits/s speed=0.0094x elapsed=0:05:50.90    \nframe=  399 fps=1.1 q=46.0 size=       1KiB time=00:00:03.31 bitrate=   1.4kbits/s speed=0.00944x elapsed=0:05:51.50    \nframe=  402 fps=1.1 q=50.0 size=       1KiB time=00:00:03.33 bitrate=   1.3kbits/s speed=0.00947x elapsed=0:05:52.08    \nframe=  403 fps=1.1 q=49.0 size=       1KiB time=00:00:03.35 bitrate=   1.3kbits/s speed=0.0095x elapsed=0:05:52.63    \nframe=  404 fps=1.1 q=50.0 size=       1KiB time=00:00:03.35 bitrate=   1.3kbits/s speed=0.00948x elapsed=0:05:53.21    \nframe=  405 fps=1.1 q=46.0 size=       1KiB time=00:00:03.36 bitrate=   1.3kbits/s speed=0.00952x elapsed=0:05:53.77    \nframe=  407 fps=1.1 q=45.0 size=       1KiB time=00:00:03.38 bitrate=   1.3kbits/s speed=0.00955x elapsed=0:05:54.33    \nframe=  410 fps=1.2 q=50.0 size=       1KiB time=00:00:03.40 bitrate=   1.3kbits/s speed=0.0096x elapsed=0:05:54.89    \nframe=  411 fps=1.2 q=48.0 size=       1KiB time=00:00:03.41 bitrate=   1.3kbits/s speed=0.00961x elapsed=0:05:55.44    \nframe=  412 fps=1.2 q=46.0 size=       1KiB time=00:00:03.42 bitrate=   1.3kbits/s speed=0.00962x elapsed=0:05:55.99    \nframe=  415 fps=1.2 q=46.0 size=       1KiB time=00:00:03.45 bitrate=   1.3kbits/s speed=0.00968x elapsed=0:05:56.56    \nframe=  417 fps=1.2 q=30.0 size=       1KiB time=00:00:03.46 bitrate=   1.3kbits/s speed=0.00971x elapsed=0:05:57.12    \nframe=  419 fps=1.2 q=48.0 size=       1KiB time=00:00:03.48 bitrate=   1.3kbits/s speed=0.00974x elapsed=0:05:57.67    \nframe=  419 fps=1.2 q=48.0 size=       1KiB time=00:00:03.48 bitrate=   1.3kbits/s speed=0.00972x elapsed=0:05:58.25    \nframe=  421 fps=1.2 q=46.0 size=       1KiB time=00:00:03.50 bitrate=   1.3kbits/s speed=0.00975x elapsed=0:05:58.80    \nframe=  422 fps=1.2 q=46.0 size=       1KiB time=00:00:03.50 bitrate=   1.3kbits/s speed=0.00976x elapsed=0:05:59.35    \nframe=  423 fps=1.2 q=42.0 size=       1KiB time=00:00:03.51 bitrate=   1.3kbits/s speed=0.00977x elapsed=0:05:59.90    \nframe=  425 fps=1.2 q=41.0 size=       1KiB time=00:00:03.53 bitrate=   1.3kbits/s speed=0.0098x elapsed=0:06:00.45    \nframe=  427 fps=1.2 q=47.0 size=       1KiB time=00:00:03.55 bitrate=   1.3kbits/s speed=0.00983x elapsed=0:06:01.03    \nframe=  428 fps=1.2 q=49.0 size=       1KiB time=00:00:03.55 bitrate=   1.3kbits/s speed=0.00984x elapsed=0:06:01.64    \nframe=  429 fps=1.2 q=44.0 size=       1KiB time=00:00:03.56 bitrate=   1.3kbits/s speed=0.00985x elapsed=0:06:02.23    \nframe=  431 fps=1.2 q=46.0 size=       1KiB time=00:00:03.58 bitrate=   1.3kbits/s speed=0.00988x elapsed=0:06:02.79    \nframe=  433 fps=1.2 q=31.0 size=       1KiB time=00:00:03.60 bitrate=   1.2kbits/s speed=0.00991x elapsed=0:06:03.36    \nframe=  434 fps=1.2 q=49.0 size=       1KiB time=00:00:03.60 bitrate=   1.2kbits/s speed=0.00991x elapsed=0:06:03.93    \nframe=  435 fps=1.2 q=48.0 size=       1KiB time=00:00:03.61 bitrate=   1.2kbits/s speed=0.00992x elapsed=0:06:04.52    \nframe=  435 fps=1.2 q=48.0 size=       1KiB time=00:00:03.61 bitrate=   1.2kbits/s speed=0.00991x elapsed=0:06:05.08    \nframe=  437 fps=1.2 q=46.0 size=       1KiB time=00:00:03.63 bitrate=   1.2kbits/s speed=0.00994x elapsed=0:06:05.62    \nframe=  438 fps=1.2 q=46.0 size=       1KiB time=00:00:03.64 bitrate=   1.2kbits/s speed=0.00994x elapsed=0:06:06.18    \nframe=  439 fps=1.2 q=41.0 size=       1KiB time=00:00:03.64 bitrate=   1.2kbits/s speed=0.00993x elapsed=0:06:06.77    \nframe=  439 fps=1.2 q=41.0 size=       1KiB time=00:00:03.65 bitrate=   1.2kbits/s speed=0.00994x elapsed=0:06:07.35    \nframe=  440 fps=1.2 q=46.0 size=       1KiB time=00:00:03.65 bitrate=   1.2kbits/s speed=0.00994x elapsed=0:06:07.95    \nframe=  442 fps=1.2 q=49.0 size=       1KiB time=00:00:03.67 bitrate=   1.2kbits/s speed=0.00997x elapsed=0:06:08.53    \nframe=  443 fps=1.2 q=47.0 size=       1KiB time=00:00:03.68 bitrate=   1.2kbits/s speed=0.00998x elapsed=0:06:09.14    \nframe=  443 fps=1.2 q=47.0 size=       1KiB time=00:00:03.68 bitrate=   1.2kbits/s speed=0.00996x elapsed=0:06:09.73    \nframe=  445 fps=1.2 q=43.0 size=       1KiB time=00:00:03.70 bitrate=   1.2kbits/s speed=0.00999x elapsed=0:06:10.32    \nframe=  447 fps=1.2 q=45.0 size=       1KiB time=00:00:03.71 bitrate=   1.2kbits/s speed=0.01x elapsed=0:06:10.91    \nframe=  449 fps=1.2 q=31.0 size=       1KiB time=00:00:03.73 bitrate=   1.2kbits/s speed=0.01x elapsed=0:06:11.47    \nframe=  450 fps=1.2 q=49.0 size=       1KiB time=00:00:03.74 bitrate=   1.2kbits/s speed=0.0101x elapsed=0:06:12.05    \nframe=  451 fps=1.2 q=48.0 size=       1KiB time=00:00:03.75 bitrate=   1.2kbits/s speed=0.0101x elapsed=0:06:12.60    \nframe=  453 fps=1.2 q=45.0 size=       1KiB time=00:00:03.76 bitrate=   1.2kbits/s speed=0.0101x elapsed=0:06:13.15    \nframe=  454 fps=1.2 q=47.0 size=       1KiB time=00:00:03.77 bitrate=   1.2kbits/s speed=0.0101x elapsed=0:06:13.69    \nframe=  455 fps=1.2 q=43.0 size=       1KiB time=00:00:03.78 bitrate=   1.2kbits/s speed=0.0101x elapsed=0:06:14.25    \nframe=  455 fps=1.2 q=43.0 size=       1KiB time=00:00:03.78 bitrate=   1.2kbits/s speed=0.0101x elapsed=0:06:14.80    \nframe=  456 fps=1.2 q=47.0 size=       1KiB time=00:00:03.79 bitrate=   1.2kbits/s speed=0.0101x elapsed=0:06:15.38    \nframe=  459 fps=1.2 q=47.0 size=       1KiB time=00:00:03.81 bitrate=   1.2kbits/s speed=0.0102x elapsed=0:06:15.96    \nframe=  459 fps=1.2 q=47.0 size=       1KiB time=00:00:03.81 bitrate=   1.2kbits/s speed=0.0101x elapsed=0:06:16.53    \nframe=  461 fps=1.2 q=43.0 size=       1KiB time=00:00:03.82 bitrate=   1.2kbits/s speed=0.0101x elapsed=0:06:17.10    \nframe=  462 fps=1.2 q=48.0 size=       1KiB time=00:00:03.84 bitrate=   1.2kbits/s speed=0.0102x elapsed=0:06:17.67    \nframe=  464 fps=1.2 q=48.0 size=       1KiB time=00:00:03.85 bitrate=   1.2kbits/s speed=0.0102x elapsed=0:06:18.23    \nframe=  466 fps=1.2 q=49.0 size=       1KiB time=00:00:03.87 bitrate=   1.2kbits/s speed=0.0102x elapsed=0:06:18.78    \nframe=  467 fps=1.2 q=48.0 size=       1KiB time=00:00:03.88 bitrate=   1.2kbits/s speed=0.0102x elapsed=0:06:19.31    \nframe=  469 fps=1.2 q=45.0 size=       1KiB time=00:00:03.90 bitrate=   1.1kbits/s speed=0.0103x elapsed=0:06:19.85    \nframe=  470 fps=1.2 q=46.0 size=       1KiB time=00:00:03.90 bitrate=   1.1kbits/s speed=0.0103x elapsed=0:06:20.40    \nframe=  471 fps=1.2 q=42.0 size=       1KiB time=00:00:03.91 bitrate=   1.1kbits/s speed=0.0103x elapsed=0:06:20.97    \nframe=  472 fps=1.2 q=46.0 size=       1KiB time=00:00:03.92 bitrate=   1.1kbits/s speed=0.0103x elapsed=0:06:21.54    \nframe=  475 fps=1.2 q=47.0 size=       1KiB time=00:00:03.95 bitrate=   1.1kbits/s speed=0.0103x elapsed=0:06:22.10    \nframe=  476 fps=1.2 q=49.0 size=       1KiB time=00:00:03.95 bitrate=   1.1kbits/s speed=0.0103x elapsed=0:06:22.66    \nframe=  479 fps=1.2 q=47.0 size=       1KiB time=00:00:03.97 bitrate=   1.1kbits/s speed=0.0104x elapsed=0:06:23.23    \nframe=  479 fps=1.2 q=47.0 size=       1KiB time=00:00:03.98 bitrate=   1.1kbits/s speed=0.0104x elapsed=0:06:23.79    \nframe=  481 fps=1.3 q=30.0 size=       1KiB time=00:00:04.00 bitrate=   1.1kbits/s speed=0.0104x elapsed=0:06:24.32    \nframe=  483 fps=1.3 q=48.0 size=       1KiB time=00:00:04.01 bitrate=   1.1kbits/s speed=0.0104x elapsed=0:06:24.84    \nframe=  483 fps=1.3 q=48.0 size=       1KiB time=00:00:04.01 bitrate=   1.1kbits/s speed=0.0104x elapsed=0:06:25.38    \nframe=  484 fps=1.3 q=49.0 size=       1KiB time=00:00:04.02 bitrate=   1.1kbits/s speed=0.0104x elapsed=0:06:25.93    \nframe=  485 fps=1.3 q=45.0 size=       1KiB time=00:00:04.03 bitrate=   1.1kbits/s speed=0.0104x elapsed=0:06:26.44    \nframe=  486 fps=1.3 q=45.0 size=       1KiB time=00:00:04.04 bitrate=   1.1kbits/s speed=0.0104x elapsed=0:06:26.98    \nframe=  487 fps=1.3 q=40.0 size=       1KiB time=00:00:04.05 bitrate=   1.1kbits/s speed=0.0105x elapsed=0:06:27.51    \nframe=  488 fps=1.3 q=45.0 size=       1KiB time=00:00:04.05 bitrate=   1.1kbits/s speed=0.0104x elapsed=0:06:28.08    \nframe=  489 fps=1.3 q=40.0 size=       1KiB time=00:00:04.06 bitrate=   1.1kbits/s speed=0.0105x elapsed=0:06:28.63    \nframe=  491 fps=1.3 q=46.0 size=       1KiB time=00:00:04.08 bitrate=   1.1kbits/s speed=0.0105x elapsed=0:06:29.17    \nframe=  492 fps=1.3 q=48.0 size=       1KiB time=00:00:04.09 bitrate=   1.1kbits/s speed=0.0105x elapsed=0:06:29.74    \nframe=  493 fps=1.3 q=42.0 size=       1KiB time=00:00:04.10 bitrate=   1.1kbits/s speed=0.0105x elapsed=0:06:30.33    \nframe=  495 fps=1.3 q=46.0 size=       1KiB time=00:00:04.11 bitrate=   1.1kbits/s speed=0.0105x elapsed=0:06:30.94    \nframe=  496 fps=1.3 q=48.0 size=       1KiB time=00:00:04.11 bitrate=   1.1kbits/s speed=0.0105x elapsed=0:06:31.53    \nframe=  497 fps=1.3 q=30.0 size=       1KiB time=00:00:04.13 bitrate=   1.1kbits/s speed=0.0105x elapsed=0:06:32.13    \nframe=  498 fps=1.3 q=49.0 size=       1KiB time=00:00:04.14 bitrate=   1.1kbits/s speed=0.0105x elapsed=0:06:32.70    \nframe=  499 fps=1.3 q=48.0 size=       1KiB time=00:00:04.15 bitrate=   1.1kbits/s speed=0.0106x elapsed=0:06:33.28    \nframe=  499 fps=1.3 q=48.0 size=       1KiB time=00:00:04.15 bitrate=   1.1kbits/s speed=0.0105x elapsed=0:06:33.85    \nframe=  500 fps=1.3 q=40.0 size=       1KiB time=00:00:04.15 bitrate=   1.1kbits/s speed=0.0105x elapsed=0:06:34.57    \nframe=  502 fps=1.3 q=45.0 size=       1KiB time=00:00:04.17 bitrate=   1.1kbits/s speed=0.0106x elapsed=0:06:35.42    \nframe=  505 fps=1.3 q=40.0 size=       1KiB time=00:00:04.20 bitrate=   1.1kbits/s speed=0.0106x elapsed=0:06:35.95    \nframe=  507 fps=1.3 q=46.0 size=       1KiB time=00:00:04.21 bitrate=   1.1kbits/s speed=0.0106x elapsed=0:06:36.47    \nframe=  509 fps=1.3 q=42.0 size=       1KiB time=00:00:04.23 bitrate=   1.1kbits/s speed=0.0107x elapsed=0:06:36.99    \nframe=  511 fps=1.3 q=46.0 size=       1KiB time=00:00:04.25 bitrate=   1.1kbits/s speed=0.0107x elapsed=0:06:37.53    \nframe=  513 fps=1.3 q=30.0 size=       1KiB time=00:00:04.26 bitrate=   1.0kbits/s speed=0.0107x elapsed=0:06:38.07    \nframe=  513 fps=1.3 q=30.0 size=       1KiB time=00:00:04.26 bitrate=   1.0kbits/s speed=0.0107x elapsed=0:06:38.59    \nframe=  517 fps=1.3 q=45.0 size=       1KiB time=00:00:04.30 bitrate=   1.0kbits/s speed=0.0108x elapsed=0:06:39.11    \nframe=  519 fps=1.3 q=42.0 size=       1KiB time=00:00:04.30 bitrate=   1.0kbits/s speed=0.0108x elapsed=0:06:39.66    \nframe=  521 fps=1.3 q=40.0 size=       1KiB time=00:00:04.33 bitrate=   1.0kbits/s speed=0.0108x elapsed=0:06:40.27    \nframe=  525 fps=1.3 q=43.0 size=       1KiB time=00:00:04.36 bitrate=   1.0kbits/s speed=0.0109x elapsed=0:06:40.80    \nframe=  525 fps=1.3 q=43.0 size=       1KiB time=00:00:04.36 bitrate=   1.0kbits/s speed=0.0109x elapsed=0:06:41.38    \nframe=  529 fps=1.3 q=30.0 size=       1KiB time=00:00:04.38 bitrate=   1.0kbits/s speed=0.0109x elapsed=0:06:41.95    \nframe=  533 fps=1.3 q=45.0 size=       1KiB time=00:00:04.43 bitrate=   1.0kbits/s speed=0.011x elapsed=0:06:42.50    \nframe=  535 fps=1.3 q=48.0 size=       1KiB time=00:00:04.45 bitrate=   1.0kbits/s speed=0.011x elapsed=0:06:43.13    \nframe=  537 fps=1.3 q=40.0 size=       1KiB time=00:00:04.46 bitrate=   1.0kbits/s speed=0.0111x elapsed=0:06:43.66    \nframe=  539 fps=1.3 q=47.0 size=       1KiB time=00:00:04.46 bitrate=   1.0kbits/s speed=0.011x elapsed=0:06:44.28    \nframe=  541 fps=1.3 q=43.0 size=       1KiB time=00:00:04.50 bitrate=   1.0kbits/s speed=0.0111x elapsed=0:06:44.88    \nframe=  543 fps=1.3 q=45.0 size=       1KiB time=00:00:04.51 bitrate=   1.0kbits/s speed=0.0111x elapsed=0:06:45.42    \nframe=  545 fps=1.3 q=30.0 size=       1KiB time=00:00:04.53 bitrate=   1.0kbits/s speed=0.0112x elapsed=0:06:46.05    \nframe=  547 fps=1.3 q=48.0 size=       1KiB time=00:00:04.55 bitrate=   1.0kbits/s speed=0.0112x elapsed=0:06:46.58    \nframe=  549 fps=1.3 q=45.0 size=       1KiB time=00:00:04.56 bitrate=   1.0kbits/s speed=0.0112x elapsed=0:06:47.10    \nframe=  549 fps=1.3 q=45.0 size=       1KiB time=00:00:04.56 bitrate=   1.0kbits/s speed=0.0112x elapsed=0:06:47.61    \nframe=  551 fps=1.4 q=48.0 size=       1KiB time=00:00:04.58 bitrate=   1.0kbits/s speed=0.0112x elapsed=0:06:48.14    \nframe=  553 fps=1.4 q=40.0 size=       1KiB time=00:00:04.60 bitrate=   1.0kbits/s speed=0.0113x elapsed=0:06:48.67    \nframe=  553 fps=1.4 q=40.0 size=       1KiB time=00:00:04.60 bitrate=   1.0kbits/s speed=0.0112x elapsed=0:06:49.19    \nframe=  555 fps=1.4 q=47.0 size=       1KiB time=00:00:04.61 bitrate=   1.0kbits/s speed=0.0113x elapsed=0:06:49.70    \nframe=  557 fps=1.4 q=43.0 size=       1KiB time=00:00:04.63 bitrate=   1.0kbits/s speed=0.0113x elapsed=0:06:50.23    \nframe=  557 fps=1.4 q=43.0 size=       1KiB time=00:00:04.63 bitrate=   1.0kbits/s speed=0.0113x elapsed=0:06:50.75    \nframe=  561 fps=1.4 q=30.0 size=       1KiB time=00:00:04.66 bitrate=   1.0kbits/s speed=0.0113x elapsed=0:06:51.28    \nframe=  563 fps=1.4 q=48.0 size=       1KiB time=00:00:04.68 bitrate=   1.0kbits/s speed=0.0114x elapsed=0:06:51.82    \nframe=  565 fps=1.4 q=45.0 size=       1KiB time=00:00:04.70 bitrate=   1.0kbits/s speed=0.0114x elapsed=0:06:52.35    \nframe=  567 fps=1.4 q=43.0 size=       1KiB time=00:00:04.71 bitrate=   0.9kbits/s speed=0.0114x elapsed=0:06:52.94    \nframe=  569 fps=1.4 q=40.0 size=       1KiB time=00:00:04.73 bitrate=   0.9kbits/s speed=0.0114x elapsed=0:06:53.49    \nframe=  569 fps=1.4 q=40.0 size=       1KiB time=00:00:04.73 bitrate=   0.9kbits/s speed=0.0114x elapsed=0:06:54.02    \nframe=  569 fps=1.4 q=40.0 size=       1KiB time=00:00:04.73 bitrate=   0.9kbits/s speed=0.0114x elapsed=0:06:54.67    \nframe=  571 fps=1.4 q=47.0 size=       1KiB time=00:00:04.75 bitrate=   0.9kbits/s speed=0.0114x elapsed=0:06:55.17    \nframe=  573 fps=1.4 q=44.0 size=       1KiB time=00:00:04.76 bitrate=   0.9kbits/s speed=0.0115x elapsed=0:06:55.69    \nframe=  573 fps=1.4 q=44.0 size=       1KiB time=00:00:04.76 bitrate=   0.9kbits/s speed=0.0115x elapsed=0:06:56.20    \nframe=  577 fps=1.4 q=29.0 size=       1KiB time=00:00:04.80 bitrate=   0.9kbits/s speed=0.0115x elapsed=0:06:56.73    \nframe=  581 fps=1.4 q=50.0 size=       1KiB time=00:00:04.83 bitrate=   0.9kbits/s speed=0.0116x elapsed=0:06:57.24    \nframe=  585 fps=1.4 q=44.0 size=       1KiB time=00:00:04.86 bitrate=   0.9kbits/s speed=0.0116x elapsed=0:06:57.76    \nframe=  585 fps=1.4 q=44.0 size=       1KiB time=00:00:04.86 bitrate=   0.9kbits/s speed=0.0116x elapsed=0:06:58.27    \nframe=  587 fps=1.4 q=50.0 size=       1KiB time=00:00:04.88 bitrate=   0.9kbits/s speed=0.0117x elapsed=0:06:58.78    \nframe=  589 fps=1.4 q=50.0 size=       1KiB time=00:00:04.90 bitrate=   0.9kbits/s speed=0.0117x elapsed=0:06:59.30    \nframe=  589 fps=1.4 q=50.0 size=       1KiB time=00:00:04.90 bitrate=   0.9kbits/s speed=0.0117x elapsed=0:06:59.82    \n[out#0/matroska @ 000001afbdcf9100] video:1663KiB audio:0KiB subtitle:0KiB other streams:0KiB global headers:0KiB muxing overhead: 0.196070%\nframe=  600 fps=1.4 q=50.0 Lsize=    1666KiB time=00:00:04.99 bitrate=2733.8kbits/s speed=0.0119x elapsed=0:07:00.11    \n",
  "seconds": 421.6741392612457,
  "probe_out": {}
}